<svg width="1200" height="1200" viewBox="0 0 1200 1200" fill="none" xmlns="http://www.w3.org/2000/svg">
<g clip-path="url(#clip0_153_201)">
<path d="M310.007 520.006C309.929 518.024 312.343 516.824 314.534 517.756L367.398 540.231C369.768 541.239 370.094 543.943 367.972 544.998L317.001 570.332C314.879 571.387 311.985 569.959 311.9 567.815L310.007 520.006Z" fill="white" fill-opacity="0.55"/>
<path d="M1020.21 542.271C1017.88 541.203 1017.89 537.896 1020.22 536.821L1072.01 512.903C1074 511.984 1076.27 513.433 1076.27 515.621L1076.21 563.296C1076.2 565.484 1073.93 566.94 1071.95 566.028L1020.21 542.271Z" fill="white" fill-opacity="0.55"/>
<rect width="12.5729" height="56.2442" rx="3" transform="matrix(0.454622 -0.890459 0.951786 0.30724 470.456 657.922)" fill="white" fill-opacity="0.63"/>
<rect width="12.5729" height="56.2442" rx="3" transform="matrix(0.454622 -0.890459 0.951786 0.30724 481.369 636.548)" fill="white" fill-opacity="0.63"/>
<rect width="12.3037" height="56.421" rx="3" transform="matrix(-0.443993 -0.896245 0.953088 -0.302236 861.465 483.741)" fill="white" fill-opacity="0.63"/>
<rect width="12.3037" height="56.421" rx="3" transform="matrix(-0.443993 -0.896245 0.953088 -0.302236 851.036 462.689)" fill="white" fill-opacity="0.63"/>
<path d="M563.745 512.982C564.375 514.95 562.112 516.717 559.659 516.173L501.865 503.36C499.396 502.813 498.588 500.34 500.411 498.916L543.368 465.37C545.192 463.946 548.274 464.644 548.908 466.623L563.745 512.982Z" fill="white" fill-opacity="0.55"/>
<path d="M547.354 498.64C547.984 500.608 545.721 502.375 543.268 501.831L485.474 489.018C483.005 488.471 482.196 485.998 484.02 484.574L526.977 451.028C528.8 449.604 531.883 450.302 532.517 452.281L547.354 498.64Z" fill="white" fill-opacity="0.55"/>
<path d="M826.558 529.429C827.754 527.628 830.941 527.53 832.296 529.252L864.153 569.759C865.508 571.482 864.013 573.736 861.462 573.815L801.469 575.669C798.918 575.748 797.225 573.593 798.422 571.79L826.558 529.429Z" fill="white" fill-opacity="0.55"/>
<path d="M826.564 548.864C827.761 547.063 830.947 546.964 832.302 548.687L864.159 589.193C865.515 590.917 864.019 593.171 861.468 593.249L801.475 595.104C798.924 595.183 797.231 593.028 798.428 591.225L826.564 548.864Z" fill="white" fill-opacity="0.55"/>
<path d="M689.945 207.123C692.112 207.043 693.47 209.361 692.456 211.407L668.215 260.327C667.149 262.479 664.286 262.715 663.131 260.745L635.578 213.741C634.423 211.771 635.872 209.123 638.151 209.039L689.945 207.123Z" fill="white" fill-opacity="0.55"/>
<path d="M667.598 862.713C668.73 860.598 671.992 860.591 673.142 862.701L699.214 910.569C700.25 912.47 698.761 914.711 696.459 914.716L644.703 914.827C642.401 914.832 640.894 912.598 641.914 910.692L667.598 862.713Z" fill="white" fill-opacity="0.55"/>
<rect width="12.9742" height="54.8943" rx="3" transform="matrix(0.935351 0.403823 -0.338881 0.901637 541.049 355.766)" fill="white" fill-opacity="0.63"/>
<rect width="12.9742" height="54.8943" rx="3" transform="matrix(0.935351 0.403823 -0.338881 0.901637 564.217 365.768)" fill="white" fill-opacity="0.63"/>
<rect width="12.7179" height="55.0123" rx="3" transform="matrix(0.938043 -0.399676 0.337682 0.901582 730.474 716.234)" fill="white" fill-opacity="0.63"/>
<rect width="12.7179" height="55.0123" rx="3" transform="matrix(0.938043 -0.399676 0.337682 0.901582 753.25 706.531)" fill="white" fill-opacity="0.63"/>
<path d="M698.207 441.404C696.075 441.993 694.151 439.903 694.735 437.634L708.491 384.22C709.078 381.942 711.751 381.192 713.298 382.873L749.713 422.424C751.26 424.104 750.517 426.95 748.377 427.541L698.207 441.404Z" fill="white" fill-opacity="0.55"/>
<path d="M713.704 426.218C711.573 426.807 709.648 424.717 710.233 422.448L723.988 369.033C724.575 366.755 727.248 366.006 728.795 367.686L765.21 407.238C766.757 408.918 766.014 411.764 763.874 412.355L713.704 426.218Z" fill="white" fill-opacity="0.55"/>
<path d="M680.926 684.173C682.879 685.272 682.992 688.215 681.13 689.472L637.332 719.031C635.468 720.289 633.025 718.916 632.934 716.56L630.803 661.167C630.712 658.811 633.042 657.239 634.996 658.338L680.926 684.173Z" fill="white" fill-opacity="0.55"/>
<path d="M659.88 684.246C661.834 685.345 661.947 688.289 660.084 689.546L616.286 719.105C614.423 720.363 611.979 718.989 611.889 716.634L609.757 661.24C609.666 658.884 611.996 657.313 613.95 658.412L659.88 684.246Z" fill="white" fill-opacity="0.55"/>
<path d="M708.891 615.497C706.826 614.923 706.187 612.464 707.68 610.841L743.945 571.416C745.593 569.625 748.545 570.184 749.12 572.397L762.994 625.767C763.569 627.98 761.308 630.077 759.03 629.443L708.891 615.497Z" fill="white" fill-opacity="0.55"/>
<rect width="14.5219" height="59.535" rx="3" transform="matrix(-0.227971 0.930866 -0.987437 -0.278724 777.474 567.163)" fill="white" fill-opacity="0.63"/>
<path d="M528.663 822.268C527.611 824.411 524.473 824.541 523.261 822.492L495.55 775.64C494.433 773.752 495.813 771.391 498.088 771.297L549.838 769.158C552.113 769.064 553.67 771.303 552.701 773.278L528.663 822.268Z" fill="white" fill-opacity="0.55"/>
<rect width="12.9066" height="67.0901" rx="3" transform="matrix(0.895757 0.508464 -0.423271 0.855105 499.738 740.574)" fill="white" fill-opacity="0.63"/>
<path d="M511.475 157.748C513.226 156.322 515.76 157.457 516.043 159.794L522.706 214.786C522.99 217.129 520.799 218.923 518.765 218.012L470.904 196.575C468.87 195.664 468.521 192.733 470.277 191.303L511.475 157.748Z" fill="white" fill-opacity="0.55"/>
<path d="M502.696 178.177C504.447 176.751 506.981 177.886 507.264 180.223L513.927 235.215C514.211 237.558 512.02 239.352 509.986 238.441L462.125 217.004C460.091 216.093 459.743 213.162 461.498 211.732L502.696 178.177Z" fill="white" fill-opacity="0.55"/>
<path d="M768.081 252.375C768.347 249.965 771.262 248.632 773.081 250.088L814.585 283.301C816.251 284.634 815.739 287.356 813.641 288.315L766.07 310.072C763.972 311.032 761.771 309.552 762.015 307.345L768.081 252.375Z" fill="white" fill-opacity="0.55"/>
<rect width="12.8449" height="67.3455" rx="3" transform="matrix(-1.01062 -0.133935 0.108946 -0.957403 822.368 317.665)" fill="white" fill-opacity="0.63"/>
<rect width="12.9688" height="54.9226" rx="3" transform="matrix(-0.426574 0.869319 -0.979736 -0.300994 425.701 271.731)" fill="white" fill-opacity="0.63"/>
<rect width="12.9688" height="54.9226" rx="3" transform="matrix(-0.426574 0.869319 -0.979736 -0.300994 415.139 293.254)" fill="white" fill-opacity="0.63"/>
<path d="M235.701 502.963C234.534 504.781 231.349 504.924 229.967 503.22L197.45 463.163C196.067 461.459 197.525 459.184 200.074 459.07L260.031 456.379C262.581 456.264 264.309 458.396 263.141 460.214L235.701 502.963Z" fill="white" fill-opacity="0.55"/>
<path d="M235.377 483.531C234.21 485.349 231.025 485.492 229.643 483.788L197.126 443.731C195.743 442.027 197.201 439.752 199.75 439.638L259.707 436.947C262.257 436.832 263.985 438.963 262.817 440.782L235.377 483.531Z" fill="white" fill-opacity="0.55"/>
<path d="M1007.21 442.128C1006.04 443.945 1002.86 444.088 1001.47 442.385L968.958 402.328C967.574 400.624 969.033 398.349 971.582 398.235L1031.54 395.543C1034.09 395.429 1035.82 397.56 1034.65 399.379L1007.21 442.128Z" fill="white" fill-opacity="0.55"/>
<path d="M1006.88 422.695C1005.72 424.513 1002.53 424.656 1001.15 422.953L968.634 382.896C967.251 381.191 968.709 378.917 971.258 378.803L1031.21 376.111C1033.76 375.997 1035.49 378.128 1034.33 379.947L1006.88 422.695Z" fill="white" fill-opacity="0.55"/>
<path d="M752.236 503.665C751.62 505.532 749.158 506.073 747.44 504.719L704.954 471.212C702.948 469.63 703.452 466.736 705.824 466.215L763.559 453.537C765.931 453.016 768.204 455.3 767.484 457.481L752.236 503.665Z" fill="white" fill-opacity="0.55"/>
<rect width="14.9472" height="57.2245" rx="3" transform="matrix(0.978574 0.206392 -0.317599 0.948066 700.202 440.032)" fill="white" fill-opacity="0.63"/>
<path d="M975.301 670.209C977.649 671.198 977.788 674.31 975.535 675.44L924.778 700.896C922.787 701.895 920.361 700.561 920.265 698.416L918.133 650.694C918.037 648.549 920.337 647.07 922.411 647.943L975.301 670.209Z" fill="white" fill-opacity="0.55"/>
<rect width="12.4656" height="68.8733" rx="3" transform="matrix(0.573327 -0.855364 0.900573 0.382464 887.004 696.864)" fill="white" fill-opacity="0.63"/>
<path d="M255.916 684.818C254.378 683.199 255.613 680.867 258.144 680.61L317.718 674.571C320.259 674.313 322.199 676.341 321.206 678.216L297.824 722.369C296.831 724.245 293.652 724.557 292.108 722.932L255.916 684.818Z" fill="white" fill-opacity="0.55"/>
<path d="M278.007 692.967C276.47 691.348 277.705 689.016 280.235 688.759L339.809 682.72C342.351 682.462 344.291 684.489 343.298 686.365L319.916 730.518C318.923 732.393 315.744 732.706 314.2 731.08L278.007 692.967Z" fill="white" fill-opacity="0.55"/>
<path d="M359.617 448.09C356.971 447.836 355.423 444.926 357.028 443.224L393.077 405.031C394.483 403.542 397.33 404.114 398.386 406.098L421.74 449.997C422.796 451.981 421.337 454.018 419.02 453.795L359.617 448.09Z" fill="white" fill-opacity="0.55"/>
<rect width="12.3673" height="69.255" rx="3" transform="matrix(-0.1543 0.969006 -1.00781 -0.0997488 430.179 398.062)" fill="white" fill-opacity="0.63"/>
<path d="M953.392 908.945C953.502 910.994 951.097 912.292 948.92 911.36L895.476 888.466C893.159 887.473 892.842 884.732 894.915 883.613L945.655 856.222C947.728 855.103 950.571 856.48 950.689 858.661L953.392 908.945Z" fill="white" fill-opacity="0.55"/>
<rect width="13.0539" height="56.5179" rx="3" transform="matrix(-0.423467 0.905265 -0.952194 -0.30698 818.226 801.059)" fill="white" fill-opacity="0.63"/>
<rect width="13.0539" height="56.5179" rx="3" transform="matrix(-0.423467 0.905265 -0.952194 -0.30698 807.673 823.619)" fill="white" fill-opacity="0.63"/>
<path d="M727.348 954.242C726.698 952.226 728.893 950.373 731.31 950.899L789.52 963.549C791.949 964.077 792.779 966.608 791.013 968.099L748.47 1004C746.703 1005.5 743.669 1004.82 743.016 1002.8L727.348 954.242Z" fill="white" fill-opacity="0.55"/>
<path d="M743.978 969.042C743.327 967.026 745.522 965.173 747.939 965.698L806.15 978.349C808.578 978.877 809.409 981.408 807.642 982.899L765.099 1018.8C763.333 1020.3 760.299 1019.62 759.645 1017.6L743.978 969.042Z" fill="white" fill-opacity="0.55"/>
<path d="M464.249 940.913C463.104 942.783 459.978 942.929 458.621 941.176L425.973 899.02C424.614 897.266 426.045 894.927 428.547 894.81L488.717 892C491.219 891.883 492.916 894.076 491.771 895.947L464.249 940.913Z" fill="white" fill-opacity="0.55"/>
<path d="M463.917 920.541C462.773 922.411 459.647 922.557 458.289 920.804L425.641 878.648C424.283 876.894 425.713 874.555 428.215 874.438L488.386 871.628C490.888 871.511 492.585 873.704 491.44 875.575L463.917 920.541Z" fill="white" fill-opacity="0.55"/>
<path d="M539.045 966.824C539.626 964.871 542.147 964.252 543.875 965.638L587.126 1000.32C589.078 1001.89 588.565 1004.77 586.231 1005.34L528.437 1019.52C526.104 1020.09 523.845 1017.89 524.501 1015.69L539.045 966.824Z" fill="white" fill-opacity="0.55"/>
<rect width="14.9807" height="59.7064" rx="3" transform="matrix(-0.979728 -0.201926 0.289154 -0.956828 592.153 1032.74)" fill="white" fill-opacity="0.63"/>
<path d="M312.947 795.273C310.645 794.297 310.465 791.229 312.641 790.044L363.196 762.511C365.166 761.438 367.638 762.742 367.766 764.92L370.711 815.142C370.838 817.32 368.532 818.846 366.448 817.962L312.947 795.273Z" fill="white" fill-opacity="0.55"/>
<rect width="12.9686" height="69.1317" rx="3" transform="matrix(-0.53727 0.869715 -0.90349 -0.386606 401.057 766.186)" fill="white" fill-opacity="0.63"/>
<path d="M1032.36 769.87C1033.89 771.514 1032.72 773.934 1030.24 774.233L970.558 781.44C968.07 781.74 966.136 779.682 967.08 777.739L989.801 730.955C990.745 729.012 993.857 728.644 995.397 730.293L1032.36 769.87Z" fill="white" fill-opacity="0.55"/>
<path d="M1010.13 761.644C1011.67 763.288 1010.49 765.707 1008.01 766.006L948.332 773.213C945.844 773.514 943.911 771.456 944.854 769.512L967.575 722.728C968.519 720.785 971.631 720.417 973.172 722.067L1010.13 761.644Z" fill="white" fill-opacity="0.55"/>
</g>
<defs>
<clipPath id="clip0_153_201">
<rect width="1200" height="1200" fill="white"/>
</clipPath>
</defs>
</svg>
