<svg width="1500" height="1500" viewBox="0 0 1500 1500" fill="none" xmlns="http://www.w3.org/2000/svg">
<g clip-path="url(#clip0_154_202)">
<path d="M273.437 274.462C275.149 272.913 277.897 273.798 278.383 276.055L287.129 316.694C287.615 318.952 285.475 320.889 283.277 320.181L243.709 307.437C241.511 306.729 240.904 303.906 242.616 302.357L273.437 274.462Z" fill="white" fill-opacity="0.55"/>
<path d="M591.837 681.215C591.425 678.943 593.627 677.076 595.801 677.856L634.933 691.881C637.107 692.66 637.622 695.501 635.86 696.994L604.148 723.87C602.386 725.363 599.669 724.389 599.256 722.117L591.837 681.215Z" fill="white" fill-opacity="0.55"/>
<rect x="253.852" y="443.968" width="11" height="42" rx="3" transform="rotate(-18.1583 253.852 443.968)" fill="white" fill-opacity="0.63"/>
<rect x="273.806" y="437.424" width="11" height="42" rx="3" transform="rotate(-18.1583 273.806 437.424)" fill="white" fill-opacity="0.63"/>
<rect x="558.034" y="558.339" width="10.8112" height="42" rx="3" transform="rotate(-61.8749 558.034 558.339)" fill="white" fill-opacity="0.63"/>
<rect x="567.763" y="540.136" width="10.8112" height="42" rx="3" transform="rotate(-61.8749 567.763 540.136)" fill="white" fill-opacity="0.63"/>
<path d="M398.814 409.442C397.478 411.326 394.603 411.056 393.64 408.957L376.305 371.175C375.341 369.076 377.012 366.722 379.311 366.937L420.699 370.815C422.998 371.031 424.202 373.654 422.866 375.538L398.814 409.442Z" fill="white" fill-opacity="0.55"/>
<path d="M401.091 391.886C399.754 393.769 396.88 393.5 395.917 391.401L378.581 353.619C377.618 351.52 379.288 349.166 381.588 349.381L422.976 353.259C425.275 353.474 426.479 356.098 425.143 357.982L401.091 391.886Z" fill="white" fill-opacity="0.55"/>
<path d="M508.958 566.127C511.214 565.632 513.16 567.764 512.462 569.965L499.885 609.586C499.186 611.787 496.366 612.407 494.809 610.701L466.785 579.999C465.228 578.293 466.102 575.541 468.357 575.046L508.958 566.127Z" fill="white" fill-opacity="0.55"/>
<path d="M495.467 577.59C497.723 577.095 499.669 579.227 498.97 581.428L486.393 621.049C485.695 623.25 482.875 623.87 481.318 622.164L453.294 591.461C451.737 589.756 452.61 587.004 454.866 586.509L495.467 577.59Z" fill="white" fill-opacity="0.55"/>
<path d="M494.441 508.762C492.357 509.759 489.976 508.127 490.154 505.825L493.362 464.38C493.54 462.077 496.144 460.831 498.049 462.136L532.338 485.637C534.243 486.942 534.02 489.82 531.937 490.817L494.441 508.762Z" fill="white" fill-opacity="0.55"/>
<rect x="512.808" y="443.039" width="11" height="51.1153" rx="3" transform="rotate(64.632 512.808 443.039)" fill="white" fill-opacity="0.63"/>
<path d="M481.827 731.074C482.322 733.33 480.189 735.276 477.988 734.577L438.369 721.993C436.168 721.294 435.549 718.474 437.255 716.918L467.963 688.899C469.669 687.342 472.42 688.216 472.915 690.472L481.827 731.074Z" fill="white" fill-opacity="0.55"/>
<rect x="422.031" y="698.189" width="11" height="51.1153" rx="3" transform="rotate(-12.1723 422.031 698.189)" fill="white" fill-opacity="0.63"/>
<path d="M134.409 341.737C134.912 339.484 137.666 338.62 139.367 340.182L169.973 368.311C171.674 369.874 171.045 372.691 168.841 373.382L129.178 385.824C126.974 386.515 124.849 384.562 125.352 382.308L134.409 341.737Z" fill="white" fill-opacity="0.55"/>
<path d="M139.104 358.807C139.607 356.553 142.361 355.689 144.062 357.252L174.669 385.38C176.369 386.943 175.74 389.76 173.536 390.452L133.873 402.893C131.669 403.585 129.544 401.631 130.047 399.377L139.104 358.807Z" fill="white" fill-opacity="0.55"/>
<path d="M347.809 259.024C346.541 257.094 347.838 254.515 350.144 254.382L391.644 251.986C393.949 251.853 395.534 254.265 394.497 256.329L375.822 293.467C374.785 295.53 371.903 295.696 370.634 293.766L347.809 259.024Z" fill="white" fill-opacity="0.55"/>
<rect x="415.406" y="268.385" width="11" height="51.1153" rx="3" transform="rotate(146.902 415.406 268.385)" fill="white" fill-opacity="0.63"/>
<path d="M1316.64 462.724C1318.95 462.666 1320.46 465.128 1319.36 467.157L1299.49 503.672C1298.39 505.7 1295.5 505.773 1294.29 503.803L1272.6 468.341C1271.4 466.371 1272.78 463.836 1275.09 463.777L1316.64 462.724Z" fill="white" fill-opacity="0.55"/>
<path d="M1292.83 978.728C1294 976.736 1296.89 976.757 1298.03 978.765L1318.55 1014.91C1319.69 1016.92 1318.23 1019.41 1315.92 1019.4L1274.35 1019.1C1272.04 1019.08 1270.62 1016.57 1271.79 1014.58L1292.83 978.728Z" fill="white" fill-opacity="0.55"/>
<rect x="1191.27" y="578.471" width="11" height="42" rx="3" transform="rotate(22.5372 1191.27 578.471)" fill="white" fill-opacity="0.63"/>
<rect x="1210.67" y="586.52" width="11" height="42" rx="3" transform="rotate(22.5372 1210.67 586.52)" fill="white" fill-opacity="0.63"/>
<rect x="1347.32" y="863.523" width="10.8112" height="42" rx="3" transform="rotate(-21.1794 1347.32 863.523)" fill="white" fill-opacity="0.63"/>
<rect x="1366.57" y="856.067" width="10.8112" height="42" rx="3" transform="rotate(-21.1794 1366.57 856.067)" fill="white" fill-opacity="0.63"/>
<path d="M1323.69 646.815C1321.45 647.371 1319.45 645.293 1320.08 643.074L1331.58 603.124C1332.21 600.905 1335.02 600.209 1336.62 601.872L1365.47 631.798C1367.07 633.461 1366.27 636.235 1364.03 636.792L1323.69 646.815Z" fill="white" fill-opacity="0.55"/>
<path d="M1336.86 634.988C1334.62 635.545 1332.62 633.467 1333.26 631.247L1344.75 591.298C1345.39 589.079 1348.19 588.383 1349.79 590.045L1378.64 619.972C1380.25 621.634 1379.45 624.409 1377.21 624.965L1336.86 634.988Z" fill="white" fill-opacity="0.55"/>
<path d="M1305.04 837.43C1307.07 838.525 1307.15 841.41 1305.19 842.624L1269.82 864.463C1267.85 865.676 1265.31 864.307 1265.25 861.999L1264.02 820.448C1263.95 818.14 1266.4 816.623 1268.44 817.718L1305.04 837.43Z" fill="white" fill-opacity="0.55"/>
<path d="M1287.33 837.324C1289.37 838.419 1289.45 841.304 1287.49 842.518L1252.12 864.357C1250.15 865.57 1247.61 864.201 1247.54 861.893L1246.31 820.342C1246.25 818.034 1248.7 816.517 1250.73 817.612L1287.33 837.324Z" fill="white" fill-opacity="0.55"/>
<path d="M1331.43 784.47C1329.2 783.868 1328.46 781.078 1330.1 779.448L1359.55 750.116C1361.19 748.487 1363.98 749.24 1364.57 751.472L1375.25 791.647C1375.84 793.879 1373.79 795.916 1371.56 795.314L1331.43 784.47Z" fill="white" fill-opacity="0.55"/>
<rect x="1388.21" y="746.615" width="11" height="51.1153" rx="3" transform="rotate(105.327 1388.21 746.615)" fill="white" fill-opacity="0.63"/>
<path d="M1176.91 944.799C1175.82 946.832 1172.93 946.917 1171.72 944.952L1149.89 909.578C1148.67 907.613 1150.04 905.072 1152.35 905.004L1193.9 903.782C1196.21 903.715 1197.73 906.171 1196.63 908.204L1176.91 944.799Z" fill="white" fill-opacity="0.55"/>
<rect x="1153.02" y="880.877" width="11" height="51.1153" rx="3" transform="rotate(28.5232 1153.02 880.877)" fill="white" fill-opacity="0.63"/>
<path d="M1167.37 423.08C1169.22 421.699 1171.87 422.84 1172.14 425.133L1177.01 466.417C1177.28 468.71 1174.96 470.436 1172.84 469.524L1134.66 453.095C1132.54 452.182 1132.2 449.315 1134.05 447.934L1167.37 423.08Z" fill="white" fill-opacity="0.55"/>
<path d="M1159.8 439.083C1161.65 437.702 1164.3 438.843 1164.57 441.136L1169.44 482.42C1169.71 484.714 1167.39 486.44 1165.27 485.527L1127.09 469.098C1124.97 468.185 1124.63 465.318 1126.48 463.937L1159.8 439.083Z" fill="white" fill-opacity="0.55"/>
<path d="M1383.1 499.513C1383.4 497.223 1386.06 496.113 1387.9 497.515L1420.92 522.758C1422.76 524.161 1422.39 527.023 1420.25 527.911L1381.88 543.892C1379.75 544.78 1377.45 543.027 1377.75 540.737L1383.1 499.513Z" fill="white" fill-opacity="0.55"/>
<rect x="1428.25" y="550.686" width="11" height="51.1153" rx="3" transform="rotate(-172.402 1428.25 550.686)" fill="white" fill-opacity="0.63"/>
<path d="M981.977 281.719C982.038 284.028 979.577 285.537 977.547 284.435L941.011 264.608C938.981 263.506 938.905 260.621 940.874 259.414L976.313 237.686C978.282 236.479 980.819 237.856 980.88 240.164L981.977 281.719Z" fill="white" fill-opacity="0.55"/>
<path d="M465.948 258.458C467.941 259.625 467.923 262.512 465.916 263.654L429.789 284.217C427.782 285.359 425.291 283.9 425.305 281.591L425.561 240.022C425.575 237.713 428.084 236.285 430.077 237.452L465.948 258.458Z" fill="white" fill-opacity="0.55"/>
<rect x="866.096" y="156.47" width="11" height="42" rx="3" transform="rotate(112.476 866.096 156.47)" fill="white" fill-opacity="0.63"/>
<rect x="858.068" y="175.875" width="11" height="42" rx="3" transform="rotate(112.476 858.068 175.875)" fill="white" fill-opacity="0.63"/>
<rect x="581.211" y="312.826" width="10.8112" height="42" rx="3" transform="rotate(68.7594 581.211 312.826)" fill="white" fill-opacity="0.63"/>
<rect x="588.688" y="332.064" width="10.8112" height="42" rx="3" transform="rotate(68.7594 588.688 332.064)" fill="white" fill-opacity="0.63"/>
<path d="M797.894 288.963C797.335 286.722 799.411 284.716 801.631 285.352L841.593 296.801C843.813 297.437 844.512 300.238 842.851 301.843L812.955 330.726C811.294 332.331 808.519 331.536 807.96 329.295L797.894 288.963Z" fill="white" fill-opacity="0.55"/>
<path d="M809.735 302.124C809.176 299.883 811.252 297.877 813.472 298.513L853.433 309.962C855.653 310.598 856.352 313.399 854.692 315.004L824.796 343.887C823.135 345.492 820.36 344.697 819.801 342.456L809.735 302.124Z" fill="white" fill-opacity="0.55"/>
<path d="M607.259 270.512C606.166 272.546 603.281 272.634 602.066 270.671L580.189 235.324C578.973 233.36 580.339 230.817 582.648 230.747L624.197 229.474C626.506 229.403 628.025 231.858 626.932 233.892L607.259 270.512Z" fill="white" fill-opacity="0.55"/>
<path d="M607.346 252.809C606.254 254.843 603.368 254.931 602.153 252.968L580.276 217.621C579.06 215.657 580.426 213.114 582.735 213.044L624.284 211.771C626.593 211.7 628.112 214.155 627.019 216.189L607.346 252.809Z" fill="white" fill-opacity="0.55"/>
<path d="M660.247 296.852C660.847 294.622 663.636 293.877 665.268 295.512L694.631 324.936C696.262 326.571 695.512 329.359 693.281 329.954L653.117 340.671C650.886 341.267 648.847 339.223 649.447 336.993L660.247 296.852Z" fill="white" fill-opacity="0.55"/>
<rect x="698.162" y="353.592" width="11" height="51.1153" rx="3" transform="rotate(-164.734 698.162 353.592)" fill="white" fill-opacity="0.63"/>
<path d="M499.753 142.504C497.719 141.41 497.631 138.525 499.595 137.31L534.945 115.439C536.909 114.224 539.452 115.59 539.522 117.898L540.788 159.448C540.858 161.757 538.404 163.276 536.369 162.182L499.753 142.504Z" fill="white" fill-opacity="0.55"/>
<rect x="563.65" y="118.542" width="11" height="51.1153" rx="3" transform="rotate(118.462 563.65 118.542)" fill="white" fill-opacity="0.63"/>
<path d="M1021.46 132.402C1022.84 134.252 1021.71 136.905 1019.41 137.177L978.135 142.086C975.842 142.359 974.114 140.047 975.024 137.924L991.412 99.7218C992.323 97.5994 995.189 97.2586 996.572 99.1082L1021.46 132.402Z" fill="white" fill-opacity="0.55"/>
<path d="M1005.45 124.849C1006.83 126.699 1005.7 129.352 1003.4 129.624L962.124 134.533C959.831 134.806 958.102 132.494 959.013 130.371L975.401 92.1688C976.311 90.0465 979.178 89.7056 980.561 91.5553L1005.45 124.849Z" fill="white" fill-opacity="0.55"/>
<path d="M945.259 348.213C947.55 348.507 948.662 351.171 947.262 353.007L922.054 386.062C920.654 387.898 917.791 387.53 916.901 385.399L900.879 347.041C899.989 344.91 901.739 342.615 904.03 342.91L945.259 348.213Z" fill="white" fill-opacity="0.55"/>
<rect x="894.135" y="393.415" width="11" height="51.1153" rx="3" transform="rotate(-82.4634 894.135 393.415)" fill="white" fill-opacity="0.63"/>
<path d="M260.644 512.724C262.952 512.666 264.459 515.128 263.355 517.157L243.489 553.672C242.385 555.7 239.499 555.773 238.294 553.803L216.605 518.341C215.4 516.371 216.779 513.836 219.088 513.777L260.644 512.724Z" fill="white" fill-opacity="0.55"/>
<path d="M236.832 1028.73C238.001 1026.74 240.888 1026.76 242.028 1028.77L262.552 1064.91C263.692 1066.92 262.231 1069.41 259.921 1069.4L218.353 1069.1C216.044 1069.08 214.619 1066.57 215.788 1064.58L236.832 1028.73Z" fill="white" fill-opacity="0.55"/>
<rect x="135.271" y="628.471" width="11" height="42" rx="3" transform="rotate(22.5372 135.271 628.471)" fill="white" fill-opacity="0.63"/>
<rect x="154.667" y="636.52" width="11" height="42" rx="3" transform="rotate(22.5372 154.667 636.52)" fill="white" fill-opacity="0.63"/>
<rect x="291.323" y="913.523" width="10.8112" height="42" rx="3" transform="rotate(-21.1794 291.323 913.523)" fill="white" fill-opacity="0.63"/>
<rect x="310.569" y="906.067" width="10.8112" height="42" rx="3" transform="rotate(-21.1794 310.569 906.067)" fill="white" fill-opacity="0.63"/>
<path d="M267.691 696.815C265.45 697.371 263.446 695.293 264.085 693.074L275.576 653.124C276.215 650.905 279.016 650.209 280.619 651.872L309.47 681.798C311.073 683.461 310.275 686.235 308.034 686.792L267.691 696.815Z" fill="white" fill-opacity="0.55"/>
<path d="M280.865 684.988C278.623 685.545 276.62 683.467 277.258 681.247L288.75 641.298C289.388 639.079 292.19 638.383 293.792 640.045L322.644 669.972C324.247 671.634 323.449 674.409 321.207 674.965L280.865 684.988Z" fill="white" fill-opacity="0.55"/>
<path d="M249.036 887.43C251.07 888.525 251.155 891.41 249.19 892.624L213.82 914.463C211.855 915.676 209.313 914.307 209.245 911.999L208.017 870.448C207.948 868.14 210.405 866.623 212.438 867.718L249.036 887.43Z" fill="white" fill-opacity="0.55"/>
<path d="M231.333 887.324C233.367 888.419 233.452 891.304 231.487 892.518L196.117 914.357C194.152 915.57 191.61 914.201 191.542 911.893L190.314 870.342C190.245 868.034 192.702 866.517 194.735 867.612L231.333 887.324Z" fill="white" fill-opacity="0.55"/>
<path d="M275.433 834.47C273.204 833.868 272.463 831.078 274.099 829.448L303.555 800.116C305.191 798.487 307.978 799.24 308.571 801.472L319.245 841.647C319.838 843.879 317.793 845.916 315.563 845.314L275.433 834.47Z" fill="white" fill-opacity="0.55"/>
<rect x="332.214" y="796.615" width="11" height="51.1153" rx="3" transform="rotate(105.327 332.214 796.615)" fill="white" fill-opacity="0.63"/>
<path d="M120.914 994.799C119.818 996.832 116.933 996.917 115.72 994.952L93.8862 959.578C92.6732 957.613 94.0425 955.072 96.3509 955.004L137.902 953.782C140.211 953.715 141.727 956.171 140.631 958.204L120.914 994.799Z" fill="white" fill-opacity="0.55"/>
<rect x="97.0201" y="930.877" width="11" height="51.1153" rx="3" transform="rotate(28.5232 97.0201 930.877)" fill="white" fill-opacity="0.63"/>
<path d="M111.369 473.08C113.22 471.699 115.872 472.84 116.142 475.133L121.007 516.417C121.277 518.71 118.963 520.436 116.842 519.524L78.6566 503.095C76.5352 502.182 76.1974 499.315 78.0485 497.934L111.369 473.08Z" fill="white" fill-opacity="0.55"/>
<path d="M103.799 489.083C105.65 487.702 108.302 488.843 108.572 491.136L113.437 532.42C113.707 534.714 111.393 536.44 109.271 535.527L71.0865 519.098C68.9651 518.185 68.6273 515.318 70.4784 513.937L103.799 489.083Z" fill="white" fill-opacity="0.55"/>
<path d="M327.098 549.513C327.395 547.223 330.06 546.113 331.895 547.515L364.922 572.758C366.757 574.161 366.386 577.023 364.254 577.911L325.879 593.892C323.748 594.78 321.454 593.027 321.751 590.737L327.098 549.513Z" fill="white" fill-opacity="0.55"/>
<rect x="372.246" y="600.686" width="11" height="51.1153" rx="3" transform="rotate(-172.402 372.246 600.686)" fill="white" fill-opacity="0.63"/>
<path d="M835.589 1051.58C833.284 1051.71 831.7 1049.29 832.739 1047.23L851.436 1010.11C852.475 1008.04 855.357 1007.88 856.624 1009.81L879.428 1044.56C880.695 1046.5 879.396 1049.07 877.091 1049.21L835.589 1051.58Z" fill="white" fill-opacity="0.55"/>
<path d="M843.019 535.077C841.914 537.105 839.028 537.176 837.825 535.204L816.165 499.724C814.961 497.753 816.343 495.219 818.652 495.162L860.208 494.144C862.517 494.087 864.021 496.551 862.916 498.579L843.019 535.077Z" fill="white" fill-opacity="0.55"/>
<rect x="957.227" y="931.91" width="11" height="42" rx="3" transform="rotate(-159.281 957.227 931.91)" fill="white" fill-opacity="0.63"/>
<rect x="937.585" y="924.481" width="11" height="42" rx="3" transform="rotate(-159.281 937.585 924.481)" fill="white" fill-opacity="0.63"/>
<rect x="792.21" y="651.952" width="10.8112" height="42" rx="3" transform="rotate(157.003 792.21 651.952)" fill="white" fill-opacity="0.63"/>
<rect x="773.211" y="660.016" width="10.8112" height="42" rx="3" transform="rotate(157.003 773.211 660.016)" fill="white" fill-opacity="0.63"/>
<path d="M822.706 867.802C824.928 867.174 826.996 869.188 826.429 871.427L816.21 911.72C815.643 913.959 812.865 914.743 811.21 913.132L781.424 884.136C779.769 882.525 780.478 879.727 782.701 879.1L822.706 867.802Z" fill="white" fill-opacity="0.55"/>
<path d="M809.914 880.041C812.136 879.413 814.205 881.427 813.637 883.665L803.419 923.959C802.851 926.197 800.073 926.982 798.418 925.371L768.632 896.375C766.977 894.764 767.687 891.966 769.909 891.338L809.914 880.041Z" fill="white" fill-opacity="0.55"/>
<path d="M835.304 676.691C833.237 675.661 833.06 672.78 834.985 671.505L869.645 648.554C871.57 647.279 874.154 648.567 874.296 650.872L876.842 692.363C876.983 694.668 874.576 696.262 872.509 695.232L835.304 676.691Z" fill="white" fill-opacity="0.55"/>
<path d="M853.001 676.235C850.934 675.205 850.757 672.324 852.683 671.049L887.342 648.099C889.268 646.824 891.852 648.111 891.993 650.416L894.539 691.907C894.68 694.212 892.274 695.806 890.207 694.776L853.001 676.235Z" fill="white" fill-opacity="0.55"/>
<path d="M810.6 730.461C812.848 730.993 813.677 733.758 812.093 735.438L783.583 765.69C781.999 767.371 779.19 766.706 778.526 764.494L766.583 724.678C765.919 722.466 767.899 720.365 770.146 720.897L810.6 730.461Z" fill="white" fill-opacity="0.55"/>
<rect x="755.05" y="770.098" width="11" height="51.1153" rx="3" transform="rotate(-76.4905 755.05 770.098)" fill="white" fill-opacity="0.63"/>
<path d="M959.956 565.311C960.986 563.245 963.868 563.068 965.143 564.994L988.087 599.657C989.362 601.583 988.074 604.166 985.769 604.308L944.277 606.847C941.972 606.988 940.379 604.58 941.409 602.514L959.956 565.311Z" fill="white" fill-opacity="0.55"/>
<rect x="985.865" y="628.444" width="11" height="51.1153" rx="3" transform="rotate(-153.295 985.865 628.444)" fill="white" fill-opacity="0.63"/>
<path d="M986.047 1086.47C984.24 1087.9 981.554 1086.85 981.211 1084.56L975.039 1043.46C974.696 1041.17 976.954 1039.37 979.103 1040.22L1017.79 1055.43C1019.94 1056.27 1020.37 1059.13 1018.56 1060.57L986.047 1086.47Z" fill="white" fill-opacity="0.55"/>
<path d="M993.105 1070.23C991.299 1071.67 988.612 1070.61 988.269 1068.33L982.098 1027.22C981.755 1024.94 984.013 1023.14 986.162 1023.98L1024.85 1039.19C1027 1040.04 1027.43 1042.89 1025.62 1044.33L993.105 1070.23Z" fill="white" fill-opacity="0.55"/>
<path d="M768.001 1016.91C767.777 1019.21 765.148 1020.41 763.27 1019.06L729.459 994.881C727.58 993.537 727.86 990.664 729.963 989.709L767.811 972.519C769.914 971.564 772.262 973.243 772.038 975.541L768.001 1016.91Z" fill="white" fill-opacity="0.55"/>
<rect x="721.253" y="967.199" width="11" height="51.1153" rx="3" transform="rotate(5.77979 721.253 967.199)" fill="white" fill-opacity="0.63"/>
<path d="M491.716 1350.09C489.407 1350.15 487.908 1347.68 489.018 1345.65L508.988 1309.2C510.097 1307.17 512.983 1307.11 514.183 1309.08L535.771 1344.6C536.971 1346.58 535.584 1349.11 533.275 1349.16L491.716 1350.09Z" fill="white" fill-opacity="0.55"/>
<path d="M517.001 834.16C515.826 836.149 512.94 836.12 511.805 834.108L491.385 797.9C490.25 795.889 491.719 793.403 494.028 793.427L535.595 793.846C537.905 793.869 539.323 796.384 538.148 798.372L517.001 834.16Z" fill="white" fill-opacity="0.55"/>
<rect x="617.419" y="1234.71" width="11" height="42" rx="3" transform="rotate(-157.299 617.419 1234.71)" fill="white" fill-opacity="0.63"/>
<rect x="598.046" y="1226.6" width="11" height="42" rx="3" transform="rotate(-157.299 598.046 1226.6)" fill="white" fill-opacity="0.63"/>
<rect x="462.182" y="949.208" width="10.8112" height="42" rx="3" transform="rotate(158.984 462.182 949.208)" fill="white" fill-opacity="0.63"/>
<rect x="442.915" y="956.61" width="10.8112" height="42" rx="3" transform="rotate(158.984 442.915 956.61)" fill="white" fill-opacity="0.63"/>
<path d="M485.195 1165.98C487.438 1165.43 489.435 1167.52 488.79 1169.74L477.185 1209.65C476.54 1211.87 473.737 1212.56 472.139 1210.89L443.373 1180.88C441.775 1179.21 442.581 1176.44 444.823 1175.89L485.195 1165.98Z" fill="white" fill-opacity="0.55"/>
<path d="M471.987 1177.77C474.23 1177.22 476.228 1179.31 475.583 1181.52L463.978 1221.44C463.333 1223.66 460.529 1224.35 458.931 1222.68L430.165 1192.67C428.567 1191 429.373 1188.23 431.616 1187.68L471.987 1177.77Z" fill="white" fill-opacity="0.55"/>
<path d="M504.394 975.423C502.364 974.322 502.286 971.436 504.255 970.229L539.687 948.49C541.656 947.283 544.193 948.659 544.255 950.967L545.365 992.522C545.426 994.83 542.966 996.34 540.936 995.239L504.394 975.423Z" fill="white" fill-opacity="0.55"/>
<path d="M522.096 975.579C520.066 974.479 519.989 971.593 521.958 970.385L557.39 948.647C559.358 947.439 561.896 948.815 561.958 951.124L563.067 992.678C563.129 994.987 560.668 996.496 558.638 995.396L522.096 975.579Z" fill="white" fill-opacity="0.55"/>
<path d="M477.846 1028.31C480.073 1028.92 480.807 1031.71 479.166 1033.33L449.626 1062.58C447.985 1064.21 445.201 1063.44 444.614 1061.21L434.054 1021.01C433.468 1018.77 435.519 1016.74 437.747 1017.35L477.846 1028.31Z" fill="white" fill-opacity="0.55"/>
<rect x="420.958" y="1066" width="11" height="51.1153" rx="3" transform="rotate(-74.5089 420.958 1066)" fill="white" fill-opacity="0.63"/>
<path d="M632.823 868.42C633.924 866.39 636.81 866.313 638.017 868.282L659.749 903.718C660.957 905.686 659.58 908.224 657.271 908.285L615.717 909.388C613.408 909.449 611.899 906.988 613 904.958L632.823 868.42Z" fill="white" fill-opacity="0.55"/>
<rect x="656.533" y="932.41" width="11" height="51.1153" rx="3" transform="rotate(-151.313 656.533 932.41)" fill="white" fill-opacity="0.63"/>
<path d="M640.877 1390.16C639.022 1391.54 636.374 1390.39 636.11 1388.1L631.363 1346.8C631.1 1344.51 633.419 1342.79 635.537 1343.7L673.675 1360.24C675.794 1361.16 676.124 1364.03 674.269 1365.41L640.877 1390.16Z" fill="white" fill-opacity="0.55"/>
<path d="M648.493 1374.18C646.638 1375.56 643.99 1374.41 643.726 1372.12L638.979 1330.82C638.716 1328.52 641.034 1326.8 643.153 1327.72L681.291 1344.26C683.41 1345.18 683.739 1348.05 681.884 1349.42L648.493 1374.18Z" fill="white" fill-opacity="0.55"/>
<path d="M425.367 1313.12C425.064 1315.4 422.395 1316.51 420.565 1315.1L387.61 1289.76C385.779 1288.35 386.158 1285.49 388.293 1284.61L426.713 1268.74C428.847 1267.86 431.136 1269.62 430.832 1271.91L425.367 1313.12Z" fill="white" fill-opacity="0.55"/>
<rect x="380.366" y="1261.81" width="11" height="51.1153" rx="3" transform="rotate(7.76133 380.366 1261.81)" fill="white" fill-opacity="0.63"/>
<path d="M1220.39 1133.26C1221.49 1135.29 1219.98 1137.75 1217.67 1137.68L1176.12 1136.57C1173.81 1136.51 1172.43 1133.97 1173.64 1132.01L1195.38 1096.57C1196.59 1094.61 1199.48 1094.68 1200.58 1096.71L1220.39 1133.26Z" fill="white" fill-opacity="0.55"/>
<path d="M749.88 1346.44C752.185 1346.57 753.478 1349.15 752.206 1351.08L729.325 1385.79C728.053 1387.71 725.172 1387.54 724.138 1385.48L705.523 1348.31C704.489 1346.25 706.078 1343.84 708.383 1343.97L749.88 1346.44Z" fill="white" fill-opacity="0.55"/>
<rect x="1060.32" y="1074.14" width="11" height="42" rx="3" transform="rotate(85.5207 1060.32 1074.14)" fill="white" fill-opacity="0.63"/>
<rect x="1061.96" y="1095.08" width="11" height="42" rx="3" transform="rotate(85.5207 1061.96 1095.08)" fill="white" fill-opacity="0.63"/>
<rect x="877.265" y="1342.65" width="10.8112" height="42" rx="3" transform="rotate(41.8041 877.265 1342.65)" fill="white" fill-opacity="0.63"/>
<rect x="892.65" y="1356.41" width="10.8112" height="42" rx="3" transform="rotate(41.8041 892.65 1356.41)" fill="white" fill-opacity="0.63"/>
<path d="M1059.59 1223.16C1058.08 1221.41 1059.02 1218.68 1061.28 1218.24L1102.09 1210.34C1104.36 1209.9 1106.25 1212.08 1105.5 1214.26L1091.95 1253.56C1091.19 1255.74 1088.36 1256.29 1086.85 1254.54L1059.59 1223.16Z" fill="white" fill-opacity="0.55"/>
<path d="M1076.11 1229.52C1074.6 1227.78 1075.54 1225.05 1077.8 1224.61L1118.61 1216.7C1120.88 1216.26 1122.77 1218.44 1122.02 1220.62L1108.47 1259.92C1107.71 1262.1 1104.88 1262.65 1103.36 1260.91L1076.11 1229.52Z" fill="white" fill-opacity="0.55"/>
<path d="M881.302 1293.12C881.25 1295.43 878.718 1296.82 876.745 1295.62L841.222 1274.03C839.249 1272.83 839.313 1269.94 841.339 1268.84L877.798 1248.87C879.823 1247.76 882.29 1249.26 882.238 1251.57L881.302 1293.12Z" fill="white" fill-opacity="0.55"/>
<path d="M873.355 1277.3C873.303 1279.61 870.771 1281 868.798 1279.8L833.275 1258.21C831.301 1257.01 831.366 1254.13 833.392 1253.02L869.851 1233.05C871.876 1231.94 874.343 1233.44 874.291 1235.75L873.355 1277.3Z" fill="white" fill-opacity="0.55"/>
<path d="M940.473 1292.58C939.997 1290.32 942.146 1288.4 944.341 1289.11L983.852 1302.03C986.048 1302.75 986.643 1305.57 984.924 1307.12L953.981 1334.87C952.262 1336.42 949.518 1335.52 949.042 1333.26L940.473 1292.58Z" fill="white" fill-opacity="0.55"/>
<rect x="999.989" y="1325.97" width="11" height="51.1153" rx="3" transform="rotate(168.311 999.989 1325.97)" fill="white" fill-opacity="0.63"/>
<path d="M727.45 1227.75C725.141 1227.7 723.755 1225.17 724.955 1223.2L746.55 1187.68C747.75 1185.7 750.636 1185.77 751.745 1187.8L771.708 1224.26C772.817 1226.28 771.317 1228.75 769.009 1228.7L727.45 1227.75Z" fill="white" fill-opacity="0.55"/>
<rect x="773.543" y="1177.43" width="11" height="51.1153" rx="3" transform="rotate(91.5067 773.543 1177.43)" fill="white" fill-opacity="0.63"/>
<path d="M1187.9 982.262C1189.97 983.284 1190.16 986.165 1188.24 987.447L1153.67 1010.53C1151.75 1011.82 1149.16 1010.54 1149.01 1008.23L1146.3 966.754C1146.15 964.449 1148.55 962.846 1150.62 963.868L1187.9 982.262Z" fill="white" fill-opacity="0.55"/>
<path d="M1170.21 982.788C1172.28 983.809 1172.47 986.69 1170.54 987.973L1135.98 1011.06C1134.06 1012.34 1131.47 1011.06 1131.32 1008.76L1128.61 967.279C1128.46 964.975 1130.86 963.372 1132.93 964.393L1170.21 982.788Z" fill="white" fill-opacity="0.55"/>
<path d="M1217.8 1209.17C1219.98 1208.39 1222.18 1210.26 1221.76 1212.54L1214.28 1253.43C1213.86 1255.7 1211.14 1256.67 1209.38 1255.17L1177.71 1228.24C1175.95 1226.75 1176.47 1223.91 1178.65 1223.13L1217.8 1209.17Z" fill="white" fill-opacity="0.55"/>
<rect x="1192.72" y="1272.64" width="11" height="51.1153" rx="3" transform="rotate(-109.419 1192.72 1272.64)" fill="white" fill-opacity="0.63"/>
<path d="M1180.64 224.724C1182.95 224.666 1184.46 227.128 1183.36 229.157L1163.49 265.672C1162.39 267.7 1159.5 267.773 1158.29 265.803L1136.6 230.341C1135.4 228.371 1136.78 225.836 1139.09 225.777L1180.64 224.724Z" fill="white" fill-opacity="0.55"/>
<path d="M1156.83 740.728C1158 738.736 1160.89 738.757 1162.03 740.765L1182.55 776.915C1183.69 778.923 1182.23 781.412 1179.92 781.396L1138.35 781.095C1136.04 781.079 1134.62 778.568 1135.79 776.577L1156.83 740.728Z" fill="white" fill-opacity="0.55"/>
<rect x="1055.27" y="340.471" width="11" height="42" rx="3" transform="rotate(22.5372 1055.27 340.471)" fill="white" fill-opacity="0.63"/>
<rect x="1074.67" y="348.52" width="11" height="42" rx="3" transform="rotate(22.5372 1074.67 348.52)" fill="white" fill-opacity="0.63"/>
<rect x="1211.32" y="625.523" width="10.8112" height="42" rx="3" transform="rotate(-21.1794 1211.32 625.523)" fill="white" fill-opacity="0.63"/>
<rect x="1230.57" y="618.067" width="10.8112" height="42" rx="3" transform="rotate(-21.1794 1230.57 618.067)" fill="white" fill-opacity="0.63"/>
<path d="M1187.69 408.815C1185.45 409.371 1183.45 407.293 1184.08 405.074L1195.58 365.124C1196.21 362.905 1199.02 362.209 1200.62 363.872L1229.47 393.798C1231.07 395.461 1230.28 398.235 1228.03 398.792L1187.69 408.815Z" fill="white" fill-opacity="0.55"/>
<path d="M1200.86 396.988C1198.62 397.545 1196.62 395.467 1197.26 393.247L1208.75 353.298C1209.39 351.079 1212.19 350.383 1213.79 352.045L1242.64 381.972C1244.25 383.634 1243.45 386.409 1241.21 386.965L1200.86 396.988Z" fill="white" fill-opacity="0.55"/>
<path d="M1169.04 599.43C1171.07 600.525 1171.15 603.41 1169.19 604.624L1133.82 626.463C1131.85 627.676 1129.31 626.307 1129.25 623.999L1128.02 582.448C1127.95 580.14 1130.4 578.623 1132.44 579.718L1169.04 599.43Z" fill="white" fill-opacity="0.55"/>
<path d="M1151.33 599.324C1153.37 600.419 1153.45 603.304 1151.49 604.518L1116.12 626.357C1114.15 627.57 1111.61 626.201 1111.54 623.893L1110.31 582.342C1110.25 580.034 1112.7 578.517 1114.73 579.612L1151.33 599.324Z" fill="white" fill-opacity="0.55"/>
<path d="M1195.43 546.47C1193.2 545.868 1192.46 543.078 1194.1 541.448L1223.55 512.116C1225.19 510.487 1227.98 511.24 1228.57 513.472L1239.25 553.647C1239.84 555.879 1237.79 557.916 1235.56 557.314L1195.43 546.47Z" fill="white" fill-opacity="0.55"/>
<rect x="1252.21" y="508.615" width="11" height="51.1153" rx="3" transform="rotate(105.327 1252.21 508.615)" fill="white" fill-opacity="0.63"/>
<path d="M1040.91 706.799C1039.82 708.832 1036.93 708.917 1035.72 706.952L1013.89 671.578C1012.67 669.613 1014.04 667.072 1016.35 667.004L1057.9 665.782C1060.21 665.715 1061.73 668.171 1060.63 670.204L1040.91 706.799Z" fill="white" fill-opacity="0.55"/>
<rect x="1017.02" y="642.877" width="11" height="51.1153" rx="3" transform="rotate(28.5232 1017.02 642.877)" fill="white" fill-opacity="0.63"/>
<path d="M1031.37 185.08C1033.22 183.699 1035.87 184.84 1036.14 187.133L1041.01 228.417C1041.28 230.71 1038.96 232.436 1036.84 231.524L998.657 215.095C996.535 214.182 996.197 211.315 998.049 209.934L1031.37 185.08Z" fill="white" fill-opacity="0.55"/>
<path d="M1023.8 201.083C1025.65 199.702 1028.3 200.843 1028.57 203.136L1033.44 244.42C1033.71 246.713 1031.39 248.439 1029.27 247.527L991.087 231.098C988.965 230.185 988.627 227.318 990.478 225.937L1023.8 201.083Z" fill="white" fill-opacity="0.55"/>
<path d="M1247.1 261.513C1247.4 259.223 1250.06 258.113 1251.9 259.515L1284.92 284.758C1286.76 286.161 1286.39 289.023 1284.25 289.911L1245.88 305.892C1243.75 306.78 1241.45 305.027 1241.75 302.737L1247.1 261.513Z" fill="white" fill-opacity="0.55"/>
<rect x="1292.25" y="312.686" width="11" height="51.1153" rx="3" transform="rotate(-172.402 1292.25 312.686)" fill="white" fill-opacity="0.63"/>
</g>
<defs>
<clipPath id="clip0_154_202">
<rect width="1500" height="1500" fill="none"/>
</clipPath>
</defs>
</svg>
