<svg width="1726" height="1111" viewBox="0 0 1726 1111" fill="none" xmlns="http://www.w3.org/2000/svg">
<path d="M461.516 145.28C461.406 142.974 463.834 141.413 465.887 142.471L502.837 161.514C504.89 162.572 505.028 165.456 503.085 166.705L468.117 189.183C466.175 190.431 463.609 189.109 463.499 186.802L461.516 145.28Z" fill="white" fill-opacity="0.54"/>
<path d="M977.923 157.537C975.906 156.412 975.862 153.526 977.844 152.341L1013.53 131.013C1015.51 129.828 1018.03 131.234 1018.06 133.543L1018.69 175.107C1018.73 177.417 1016.25 178.898 1014.23 177.773L977.923 157.537Z" fill="white" fill-opacity="0.54"/>
<rect x="580.04" y="268.031" width="11" height="42" rx="3" transform="rotate(-68.7453 580.04 268.031)" fill="white" fill-opacity="0.53"/>
<rect x="587.653" y="248.46" width="11" height="42" rx="3" transform="rotate(-68.7453 587.653 248.46)" fill="white" fill-opacity="0.53"/>
<rect x="861.528" y="105.638" width="10.8112" height="42" rx="3" transform="rotate(-112.462 861.528 105.638)" fill="white" fill-opacity="0.53"/>
<rect x="853.642" y="86.564" width="10.8112" height="42" rx="3" transform="rotate(-112.462 853.642 86.564)" fill="white" fill-opacity="0.53"/>
<path d="M645.402 134.114C646.009 136.343 643.976 138.392 641.743 137.804L601.547 127.209C599.314 126.621 598.555 123.835 600.181 122.196L629.455 92.6818C631.081 91.0421 633.872 91.7778 634.479 94.0061L645.402 134.114Z" fill="white" fill-opacity="0.54"/>
<path d="M633.284 121.209C633.891 123.437 631.858 125.487 629.625 124.898L589.428 114.304C587.195 113.715 586.437 110.93 588.063 109.29L617.336 79.7763C618.962 78.1366 621.754 78.8723 622.361 81.1006L633.284 121.209Z" fill="white" fill-opacity="0.54"/>
<path d="M836.387 148.498C837.437 146.441 840.319 146.291 841.576 148.228L864.202 183.101C865.459 185.038 864.147 187.61 861.841 187.729L820.328 189.888C818.022 190.008 816.45 187.586 817.5 185.529L836.387 148.498Z" fill="white" fill-opacity="0.54"/>
<path d="M836.678 166.199C837.727 164.142 840.61 163.992 841.867 165.929L864.492 200.802C865.749 202.739 864.438 205.31 862.131 205.43L820.618 207.589C818.312 207.708 816.741 205.287 817.79 203.23L836.678 166.199Z" fill="white" fill-opacity="0.54"/>
<path d="M782.85 123.293C782.298 125.536 779.525 126.339 777.859 124.74L747.875 95.948C746.21 94.3485 746.9 91.5455 749.118 90.9027L789.044 79.3317C791.263 78.6888 793.345 80.6883 792.792 82.9306L782.85 123.293Z" fill="white" fill-opacity="0.54"/>
<rect x="743.734" y="67.3745" width="11" height="51.1153" rx="3" transform="rotate(14.0449 743.734 67.3745)" fill="white" fill-opacity="0.53"/>
<path d="M946.598 274.185C948.655 275.235 948.804 278.118 946.866 279.375L911.99 301.994C910.053 303.251 907.481 301.939 907.362 299.633L905.211 258.119C905.091 255.813 907.513 254.242 909.57 255.292L946.598 274.185Z" fill="white" fill-opacity="0.54"/>
<rect x="883.226" y="299.504" width="11" height="51.1153" rx="3" transform="rotate(-62.7593 883.226 299.504)" fill="white" fill-opacity="0.53"/>
<path d="M425.222 295.405C423.8 293.585 424.882 290.909 427.169 290.587L468.333 284.8C470.62 284.478 472.397 286.753 471.532 288.894L455.962 327.437C455.097 329.579 452.238 329.981 450.817 328.161L425.222 295.405Z" fill="white" fill-opacity="0.54"/>
<path d="M441.391 302.615C439.969 300.795 441.05 298.119 443.337 297.797L484.502 292.01C486.788 291.688 488.566 293.963 487.701 296.104L472.131 334.647C471.266 336.789 468.407 337.191 466.985 335.371L441.391 302.615Z" fill="white" fill-opacity="0.54"/>
<path d="M496.808 78.0191C494.512 77.7733 493.343 75.1339 494.704 73.2681L519.201 39.6841C520.562 37.8184 523.432 38.1255 524.367 40.2371L541.203 78.2443C542.139 80.3558 540.438 82.688 538.141 82.4423L496.808 78.0191Z" fill="white" fill-opacity="0.54"/>
<rect x="546.957" y="31.7373" width="11" height="51.1153" rx="3" transform="rotate(96.3152 546.957 31.7373)" fill="white" fill-opacity="0.53"/>
<path d="M143.321 890.032C141.843 888.258 142.841 885.549 145.116 885.157L186.082 878.096C188.358 877.704 190.205 879.922 189.406 882.089L175.038 921.096C174.24 923.264 171.395 923.754 169.918 921.979L143.321 890.032Z" fill="white" fill-opacity="0.53"/>
<path d="M562.88 588.707C560.592 589.025 558.818 586.748 559.687 584.608L575.317 546.089C576.185 543.949 579.044 543.552 580.464 545.374L606.007 578.169C607.426 579.991 606.34 582.666 604.053 582.984L562.88 588.707Z" fill="white" fill-opacity="0.53"/>
<rect x="311.872" y="916.603" width="11" height="42" rx="3" transform="rotate(-105.791 311.872 916.603)" fill="white" fill-opacity="0.49"/>
<rect x="306.158" y="896.395" width="11" height="42" rx="3" transform="rotate(-105.791 306.158 896.395)" fill="white" fill-opacity="0.49"/>
<rect x="438.712" y="617.405" width="10.8112" height="42" rx="3" transform="rotate(-149.507 438.712 617.405)" fill="white" fill-opacity="0.49"/>
<rect x="420.927" y="606.932" width="10.8112" height="42" rx="3" transform="rotate(-149.507 420.927 606.932)" fill="white" fill-opacity="0.49"/>
<path d="M283.365 770.338C285.191 771.751 284.804 774.612 282.667 775.487L244.201 791.248C242.064 792.123 239.78 790.357 240.091 788.069L245.675 746.876C245.985 744.588 248.656 743.493 250.483 744.906L283.365 770.338Z" fill="white" fill-opacity="0.53"/>
<path d="M265.917 767.338C267.744 768.751 267.356 771.612 265.219 772.487L226.753 788.248C224.616 789.123 222.333 787.357 222.643 785.069L228.227 743.876C228.538 741.588 231.209 740.493 233.036 741.906L265.917 767.338Z" fill="white" fill-opacity="0.53"/>
<path d="M444.466 666.76C444.064 664.486 446.275 662.63 448.445 663.419L487.513 677.622C489.683 678.411 490.186 681.254 488.417 682.739L456.583 709.471C454.815 710.956 452.102 709.97 451.7 707.695L444.466 666.76Z" fill="white" fill-opacity="0.53"/>
<path d="M455.362 680.714C454.96 678.44 457.171 676.583 459.341 677.372L498.409 691.575C500.579 692.364 501.081 695.207 499.313 696.692L467.479 723.424C465.71 724.909 462.997 723.923 462.595 721.649L455.362 680.714Z" fill="white" fill-opacity="0.53"/>
<path d="M386.55 678.896C387.46 681.019 385.732 683.331 383.438 683.057L342.161 678.141C339.868 677.868 338.73 675.214 340.113 673.365L365.01 640.076C366.393 638.227 369.26 638.568 370.17 640.691L386.55 678.896Z" fill="white" fill-opacity="0.53"/>
<rect x="321.642" y="657.83" width="11" height="51.1153" rx="3" transform="rotate(-23.0004 321.642 657.83)" fill="white" fill-opacity="0.49"/>
<path d="M608.152 700.683C610.426 700.282 612.282 702.493 611.492 704.663L597.283 743.728C596.493 745.899 593.651 746.401 592.166 744.632L565.439 712.793C563.954 711.025 564.941 708.312 567.215 707.91L608.152 700.683Z" fill="white" fill-opacity="0.53"/>
<rect x="572.824" y="759.069" width="11" height="51.1153" rx="3" transform="rotate(-99.8046 572.824 759.069)" fill="white" fill-opacity="0.49"/>
<path d="M204.795 1031.72C202.563 1031.12 201.814 1028.34 203.446 1026.7L232.815 997.284C234.446 995.65 237.235 996.395 237.835 998.625L248.628 1038.77C249.227 1041 247.188 1043.04 244.957 1042.45L204.795 1031.72Z" fill="white" fill-opacity="0.53"/>
<path d="M222.043 1027.73C219.812 1027.14 219.063 1024.35 220.694 1022.72L250.064 993.298C251.695 991.664 254.484 992.409 255.084 994.639L265.876 1034.78C266.476 1037.01 264.437 1039.06 262.205 1038.46L222.043 1027.73Z" fill="white" fill-opacity="0.53"/>
<path d="M130.968 815.085C128.987 816.273 126.464 814.87 126.426 812.561L125.746 770.998C125.709 768.689 128.185 767.204 130.203 768.326L166.538 788.519C168.557 789.641 168.604 792.528 166.623 793.715L130.968 815.085Z" fill="white" fill-opacity="0.53"/>
<rect x="143.113" y="747.933" width="11" height="51.1153" rx="3" transform="rotate(59.2699 143.113 747.933)" fill="white" fill-opacity="0.49"/>
<path d="M951.426 946.816C951.472 949.125 949.001 950.617 946.978 949.503L910.574 929.434C908.552 928.319 908.495 925.433 910.472 924.239L946.053 902.746C948.03 901.552 950.558 902.946 950.604 905.255L951.426 946.816Z" fill="white" fill-opacity="0.55"/>
<path d="M435.563 920.139C437.548 921.319 437.511 924.205 435.496 925.334L399.233 945.657C397.219 946.786 394.738 945.311 394.767 943.002L395.298 901.436C395.328 899.127 397.846 897.715 399.831 898.895L435.563 920.139Z" fill="white" fill-opacity="0.55"/>
<rect x="836.377" y="820.802" width="11" height="42" rx="3" transform="rotate(112.855 836.377 820.802)" fill="white" fill-opacity="0.58"/>
<rect x="828.221" y="840.153" width="11" height="42" rx="3" transform="rotate(112.855 828.221 840.153)" fill="white" fill-opacity="0.58"/>
<rect x="550.462" y="975.269" width="10.8112" height="42" rx="3" transform="rotate(69.1388 550.462 975.269)" fill="white" fill-opacity="0.58"/>
<rect x="557.812" y="994.555" width="10.8112" height="42" rx="3" transform="rotate(69.1388 557.812 994.555)" fill="white" fill-opacity="0.58"/>
<path d="M767.299 952.841C766.755 950.596 768.844 948.604 771.06 949.255L810.945 960.968C813.161 961.619 813.841 964.424 812.17 966.018L782.083 994.703C780.412 996.296 777.642 995.483 777.098 993.239L767.299 952.841Z" fill="white" fill-opacity="0.55"/>
<path d="M779.052 966.08C778.508 963.835 780.597 961.843 782.813 962.494L822.698 974.207C824.914 974.858 825.594 977.663 823.923 979.257L793.836 1007.94C792.165 1009.54 789.395 1008.72 788.851 1006.48L779.052 966.08Z" fill="white" fill-opacity="0.55"/>
<path d="M576.791 933.127C575.684 935.155 572.798 935.224 571.596 933.252L549.953 897.761C548.751 895.79 550.134 893.256 552.443 893.2L594 892.203C596.309 892.147 597.812 894.612 596.705 896.639L576.791 933.127Z" fill="white" fill-opacity="0.55"/>
<path d="M576.995 915.425C575.889 917.452 573.003 917.522 571.8 915.55L550.158 880.059C548.955 878.088 550.338 875.554 552.647 875.498L594.204 874.5C596.513 874.445 598.016 876.91 596.91 878.937L576.995 915.425Z" fill="white" fill-opacity="0.55"/>
<path d="M629.603 959.818C630.218 957.592 633.012 956.866 634.632 958.512L663.8 988.13C665.42 989.775 664.652 992.558 662.417 993.139L622.183 1003.59C619.948 1004.17 617.922 1002.11 618.537 999.887L629.603 959.818Z" fill="white" fill-opacity="0.55"/>
<rect x="667.141" y="1016.81" width="11" height="51.1153" rx="3" transform="rotate(-164.354 667.141 1016.81)" fill="white" fill-opacity="0.58"/>
<path d="M470.134 804.41C468.108 803.304 468.039 800.418 470.011 799.216L505.505 777.579C507.477 776.377 510.011 777.76 510.066 780.069L511.056 821.626C511.111 823.935 508.647 825.438 506.62 824.331L470.134 804.41Z" fill="white" fill-opacity="0.55"/>
<rect x="534.189" y="780.872" width="11" height="51.1153" rx="3" transform="rotate(118.841 534.189 780.872)" fill="white" fill-opacity="0.58"/>
<path d="M991.899 797.763C993.269 799.622 992.114 802.268 989.819 802.525L948.509 807.16C946.214 807.418 944.501 805.094 945.425 802.978L962.066 764.885C962.991 762.769 965.859 762.447 967.23 764.306L991.899 797.763Z" fill="white" fill-opacity="0.55"/>
<path d="M975.938 790.105C977.309 791.963 976.153 794.609 973.858 794.866L932.548 799.501C930.253 799.759 928.54 797.435 929.464 795.319L946.105 757.226C947.03 755.11 949.898 754.788 951.269 756.647L975.938 790.105Z" fill="white" fill-opacity="0.55"/>
<path d="M914.269 1013.07C916.557 1013.37 917.652 1016.05 916.24 1017.87L890.814 1050.76C889.401 1052.59 886.54 1052.2 885.664 1050.06L869.897 1011.6C869.021 1009.46 870.786 1007.18 873.075 1007.49L914.269 1013.07Z" fill="white" fill-opacity="0.55"/>
<rect x="862.846" y="1057.93" width="11" height="51.1153" rx="3" transform="rotate(-82.0841 862.846 1057.93)" fill="white" fill-opacity="0.58"/>
<path d="M1477.31 73.3458C1479.62 73.3143 1481.1 75.7944 1479.97 77.81L1459.68 114.09C1458.55 116.106 1455.67 116.145 1454.49 114.161L1433.21 78.4478C1432.03 76.4638 1433.44 73.9443 1435.75 73.9128L1477.31 73.3458Z" fill="white" fill-opacity="0.55"/>
<path d="M1447.47 589.036C1448.66 587.058 1451.55 587.113 1452.67 589.134L1472.76 625.521C1473.88 627.542 1472.39 630.015 1470.08 629.971L1428.52 629.184C1426.21 629.141 1424.82 626.614 1426.01 624.636L1447.47 589.036Z" fill="white" fill-opacity="0.55"/>
<rect x="1350.6" y="187.619" width="11" height="42" rx="3" transform="rotate(23.2071 1350.6 187.619)" fill="white" fill-opacity="0.58"/>
<rect x="1369.9" y="195.894" width="11" height="42" rx="3" transform="rotate(23.2071 1369.9 195.894)" fill="white" fill-opacity="0.58"/>
<rect x="1503.3" y="474.476" width="10.8112" height="42" rx="3" transform="rotate(-20.5095 1503.3 474.476)" fill="white" fill-opacity="0.58"/>
<rect x="1522.64" y="467.245" width="10.8112" height="42" rx="3" transform="rotate(-20.5095 1522.64 467.245)" fill="white" fill-opacity="0.58"/>
<path d="M1482.21 257.506C1479.96 258.036 1477.98 255.935 1478.65 253.723L1490.6 213.911C1491.27 211.699 1494.08 211.036 1495.66 212.717L1524.16 242.979C1525.74 244.66 1524.91 247.425 1522.66 247.956L1482.21 257.506Z" fill="white" fill-opacity="0.55"/>
<path d="M1495.52 245.834C1493.27 246.365 1491.29 244.263 1491.96 242.052L1503.91 202.239C1504.58 200.028 1507.39 199.364 1508.97 201.046L1537.47 231.307C1539.05 232.989 1538.22 235.753 1535.98 236.284L1495.52 245.834Z" fill="white" fill-opacity="0.55"/>
<path d="M1461.33 447.89C1463.35 449.009 1463.4 451.895 1461.42 453.085L1425.8 474.51C1423.82 475.7 1421.29 474.302 1421.25 471.992L1420.51 430.43C1420.47 428.121 1422.94 426.633 1424.96 427.752L1461.33 447.89Z" fill="white" fill-opacity="0.55"/>
<path d="M1443.62 447.577C1445.65 448.696 1445.7 451.582 1443.72 452.773L1408.09 474.197C1406.12 475.387 1403.59 473.989 1403.55 471.68L1402.81 430.117C1402.77 427.808 1405.24 426.32 1407.26 427.439L1443.62 447.577Z" fill="white" fill-opacity="0.55"/>
<path d="M1488.34 395.243C1486.12 394.614 1485.41 391.816 1487.06 390.206L1516.86 361.22C1518.52 359.61 1521.29 360.395 1521.86 362.634L1532.06 402.931C1532.63 405.17 1530.56 407.183 1528.34 406.555L1488.34 395.243Z" fill="white" fill-opacity="0.55"/>
<rect x="1545.56" y="358.055" width="11" height="51.1153" rx="3" transform="rotate(105.997 1545.56 358.055)" fill="white" fill-opacity="0.58"/>
<path d="M1331.96 553.754C1330.84 555.774 1327.95 555.825 1326.76 553.846L1305.34 518.219C1304.15 516.24 1305.55 513.715 1307.86 513.674L1349.42 512.939C1351.73 512.898 1353.22 515.372 1352.1 517.392L1331.96 553.754Z" fill="white" fill-opacity="0.55"/>
<rect x="1308.81" y="489.557" width="11" height="51.1153" rx="3" transform="rotate(29.1931 1308.81 489.557)" fill="white" fill-opacity="0.58"/>
<path d="M1328.51 31.9585C1330.38 30.5995 1333.02 31.7713 1333.26 34.0678L1337.64 75.4055C1337.89 77.702 1335.55 79.4009 1333.44 78.4634L1295.45 61.5891C1293.34 60.6517 1293.04 57.781 1294.9 56.4219L1328.51 31.9585Z" fill="white" fill-opacity="0.55"/>
<path d="M1320.76 47.8721C1322.62 46.513 1325.26 47.6849 1325.5 49.9814L1329.89 91.3191C1330.13 93.6156 1327.8 95.3144 1325.68 94.377L1287.69 77.5027C1285.58 76.5652 1285.28 73.6946 1287.15 72.3355L1320.76 47.8721Z" fill="white" fill-opacity="0.55"/>
<path d="M1543.33 110.909C1543.66 108.623 1546.33 107.544 1548.15 108.968L1580.88 134.595C1582.7 136.019 1582.3 138.877 1580.15 139.74L1541.6 155.271C1539.45 156.134 1537.18 154.354 1537.5 152.068L1543.33 110.909Z" fill="white" fill-opacity="0.55"/>
<rect x="1587.88" y="162.606" width="11" height="51.1153" rx="3" transform="rotate(-171.732 1587.88 162.606)" fill="white" fill-opacity="0.58"/>
<path d="M1609.55 743.866C1610.55 745.946 1608.93 748.331 1606.62 748.159L1565.17 745.049C1562.87 744.876 1561.61 742.275 1562.92 740.367L1586.34 706.023C1587.64 704.115 1590.52 704.331 1591.52 706.411L1609.55 743.866Z" fill="white" fill-opacity="0.55"/>
<path d="M1129.32 934.153C1131.62 934.401 1132.79 937.041 1131.42 938.906L1106.9 972.469C1105.54 974.334 1102.67 974.024 1101.73 971.912L1084.93 933.89C1084 931.778 1085.7 929.447 1087.99 929.695L1129.32 934.153Z" fill="white" fill-opacity="0.55"/>
<rect x="1452.51" y="677.116" width="11" height="42" rx="3" transform="rotate(88.2794 1452.51 677.116)" fill="white" fill-opacity="0.58"/>
<rect x="1453.14" y="698.107" width="11" height="42" rx="3" transform="rotate(88.2794 1453.14 698.107)" fill="white" fill-opacity="0.58"/>
<rect x="1256.74" y="936.502" width="10.8112" height="42" rx="3" transform="rotate(44.5628 1256.74 936.502)" fill="white" fill-opacity="0.58"/>
<rect x="1271.45" y="950.985" width="10.8112" height="42" rx="3" transform="rotate(44.5628 1271.45 950.985)" fill="white" fill-opacity="0.58"/>
<path d="M1444.61 825.923C1443.18 824.108 1444.25 821.428 1446.54 821.098L1487.68 815.162C1489.97 814.832 1491.75 817.1 1490.9 819.245L1475.46 857.844C1474.61 859.988 1471.75 860.401 1470.32 858.586L1444.61 825.923Z" fill="white" fill-opacity="0.55"/>
<path d="M1460.8 833.075C1459.38 831.26 1460.45 828.579 1462.73 828.25L1503.88 822.314C1506.16 821.984 1507.95 824.252 1507.09 826.396L1491.66 864.996C1490.8 867.14 1487.94 867.552 1486.52 865.738L1460.8 833.075Z" fill="white" fill-opacity="0.55"/>
<path d="M1263.16 887.228C1263 889.532 1260.4 890.795 1258.49 889.502L1224.05 866.228C1222.13 864.935 1222.34 862.055 1224.41 861.045L1261.79 842.854C1263.87 841.843 1266.26 843.459 1266.09 845.763L1263.16 887.228Z" fill="white" fill-opacity="0.55"/>
<path d="M1255.98 871.045C1255.82 873.349 1253.22 874.612 1251.31 873.319L1216.87 850.045C1214.96 848.751 1215.16 845.872 1217.24 844.861L1254.61 826.67C1256.69 825.66 1259.08 827.276 1258.92 829.58L1255.98 871.045Z" fill="white" fill-opacity="0.55"/>
<path d="M1322.29 889.536C1321.92 887.256 1324.16 885.434 1326.32 886.257L1365.16 901.061C1367.32 901.883 1367.78 904.733 1365.99 906.191L1333.75 932.429C1331.95 933.886 1329.26 932.858 1328.89 930.578L1322.29 889.536Z" fill="white" fill-opacity="0.55"/>
<rect x="1380.13" y="925.751" width="11" height="51.1153" rx="3" transform="rotate(171.07 1380.13 925.751)" fill="white" fill-opacity="0.58"/>
<path d="M1112.63 814.53C1110.33 814.367 1109.07 811.771 1110.36 809.857L1133.64 775.419C1134.93 773.505 1137.81 773.71 1138.82 775.786L1157.01 813.167C1158.02 815.244 1156.4 817.635 1154.1 817.472L1112.63 814.53Z" fill="white" fill-opacity="0.55"/>
<rect x="1161.09" y="766.484" width="11" height="51.1152" rx="3" transform="rotate(94.2654 1161.09 766.484)" fill="white" fill-opacity="0.58"/>
<path d="M1584.37 591.483C1586.39 592.603 1586.43 595.49 1584.45 596.678L1548.81 618.075C1546.83 619.263 1544.31 617.863 1544.27 615.554L1543.56 573.991C1543.52 571.682 1546 570.196 1548.02 571.316L1584.37 591.483Z" fill="white" fill-opacity="0.55"/>
<path d="M1566.67 591.156C1568.68 592.277 1568.73 595.163 1566.75 596.352L1531.11 617.748C1529.13 618.936 1526.61 617.536 1526.57 615.227L1525.86 573.664C1525.82 571.355 1528.3 569.869 1530.32 570.989L1566.67 591.156Z" fill="white" fill-opacity="0.55"/>
<path d="M1603.31 819.567C1605.52 818.897 1607.63 820.871 1607.1 823.12L1597.66 863.602C1597.13 865.851 1594.37 866.688 1592.69 865.109L1562.35 836.689C1560.66 835.11 1561.32 832.299 1563.53 831.628L1603.31 819.567Z" fill="white" fill-opacity="0.55"/>
<rect x="1575.21" y="881.752" width="11" height="51.1153" rx="3" transform="rotate(-106.66 1575.21 881.752)" fill="white" fill-opacity="0.58"/>
<path d="M1177.64 87.7241C1179.95 87.6656 1181.46 90.1282 1180.36 92.1568L1160.49 128.672C1159.39 130.7 1156.5 130.773 1155.29 128.803L1133.6 93.3414C1132.4 91.3713 1133.78 88.8355 1136.09 88.777L1177.64 87.7241Z" fill="white" fill-opacity="0.55"/>
<path d="M1153.83 603.728C1155 601.736 1157.89 601.757 1159.03 603.765L1179.55 639.915C1180.69 641.923 1179.23 644.412 1176.92 644.396L1135.35 644.095C1133.04 644.079 1131.62 641.568 1132.79 639.577L1153.83 603.728Z" fill="white" fill-opacity="0.55"/>
<rect x="1052.27" y="203.471" width="11" height="42" rx="3" transform="rotate(22.5372 1052.27 203.471)" fill="white" fill-opacity="0.58"/>
<rect x="1071.67" y="211.52" width="11" height="42" rx="3" transform="rotate(22.5372 1071.67 211.52)" fill="white" fill-opacity="0.58"/>
<rect x="1208.32" y="488.523" width="10.8112" height="42" rx="3" transform="rotate(-21.1794 1208.32 488.523)" fill="white" fill-opacity="0.58"/>
<rect x="1227.57" y="481.067" width="10.8112" height="42" rx="3" transform="rotate(-21.1794 1227.57 481.067)" fill="white" fill-opacity="0.58"/>
<path d="M1184.69 271.815C1182.45 272.371 1180.45 270.293 1181.08 268.074L1192.58 228.124C1193.21 225.905 1196.02 225.209 1197.62 226.872L1226.47 256.798C1228.07 258.461 1227.28 261.235 1225.03 261.792L1184.69 271.815Z" fill="white" fill-opacity="0.55"/>
<path d="M1197.86 259.988C1195.62 260.545 1193.62 258.467 1194.26 256.247L1205.75 216.298C1206.39 214.079 1209.19 213.383 1210.79 215.045L1239.64 244.972C1241.25 246.634 1240.45 249.409 1238.21 249.965L1197.86 259.988Z" fill="white" fill-opacity="0.55"/>
<path d="M1166.04 462.43C1168.07 463.525 1168.15 466.41 1166.19 467.624L1130.82 489.463C1128.85 490.676 1126.31 489.307 1126.25 486.999L1125.02 445.448C1124.95 443.14 1127.4 441.623 1129.44 442.718L1166.04 462.43Z" fill="white" fill-opacity="0.55"/>
<path d="M1148.33 462.324C1150.37 463.419 1150.45 466.304 1148.49 467.518L1113.12 489.357C1111.15 490.57 1108.61 489.201 1108.54 486.893L1107.31 445.342C1107.25 443.034 1109.7 441.517 1111.73 442.612L1148.33 462.324Z" fill="white" fill-opacity="0.55"/>
<path d="M1192.43 409.47C1190.2 408.868 1189.46 406.078 1191.1 404.448L1220.55 375.116C1222.19 373.487 1224.98 374.24 1225.57 376.472L1236.25 416.647C1236.84 418.879 1234.79 420.916 1232.56 420.314L1192.43 409.47Z" fill="white" fill-opacity="0.55"/>
<rect x="1249.21" y="371.615" width="11" height="51.1153" rx="3" transform="rotate(105.327 1249.21 371.615)" fill="white" fill-opacity="0.58"/>
<path d="M1037.91 569.799C1036.82 571.832 1033.93 571.917 1032.72 569.952L1010.89 534.578C1009.67 532.613 1011.04 530.072 1013.35 530.004L1054.9 528.782C1057.21 528.715 1058.73 531.171 1057.63 533.204L1037.91 569.799Z" fill="white" fill-opacity="0.55"/>
<rect x="1014.02" y="505.877" width="11" height="51.1153" rx="3" transform="rotate(28.5232 1014.02 505.877)" fill="white" fill-opacity="0.58"/>
<path d="M1028.37 48.0796C1030.22 46.6988 1032.87 47.8397 1033.14 50.1332L1038.01 91.4168C1038.28 93.7104 1035.96 95.4364 1033.84 94.5237L995.657 78.0947C993.535 77.182 993.197 74.3151 995.049 72.9343L1028.37 48.0796Z" fill="white" fill-opacity="0.55"/>
<path d="M1020.8 64.0828C1022.65 62.702 1025.3 63.8429 1025.57 66.1364L1030.44 107.42C1030.71 109.714 1028.39 111.44 1026.27 110.527L988.087 94.0979C985.965 93.1852 985.627 90.3183 987.478 88.9374L1020.8 64.0828Z" fill="white" fill-opacity="0.55"/>
<path d="M1244.1 124.513C1244.4 122.223 1247.06 121.113 1248.9 122.515L1281.92 147.758C1283.76 149.161 1283.39 152.023 1281.25 152.911L1242.88 168.892C1240.75 169.78 1238.45 168.027 1238.75 165.737L1244.1 124.513Z" fill="white" fill-opacity="0.55"/>
<rect x="1289.25" y="175.686" width="11" height="51.1153" rx="3" transform="rotate(-172.402 1289.25 175.686)" fill="white" fill-opacity="0.58"/>
<g filter="url(#filter0_d_70_220)">
<path d="M224.644 70.7241C226.952 70.6656 228.459 73.1282 227.355 75.1568L207.489 111.672C206.385 113.7 203.499 113.773 202.294 111.803L180.605 76.3414C179.4 74.3713 180.779 71.8355 183.088 71.777L224.644 70.7241Z" fill="white" fill-opacity="0.55"/>
<path d="M200.832 586.728C202.001 584.736 204.888 584.757 206.028 586.765L226.552 622.915C227.692 624.923 226.231 627.412 223.921 627.396L182.353 627.095C180.044 627.079 178.619 624.568 179.788 622.577L200.832 586.728Z" fill="white" fill-opacity="0.55"/>
<rect x="99.2709" y="186.471" width="11" height="42" rx="3" transform="rotate(22.5372 99.2709 186.471)" fill="white" fill-opacity="0.63"/>
<rect x="118.667" y="194.52" width="11" height="42" rx="3" transform="rotate(22.5372 118.667 194.52)" fill="white" fill-opacity="0.63"/>
<rect x="255.323" y="471.523" width="10.8112" height="42" rx="3" transform="rotate(-21.1794 255.323 471.523)" fill="white" fill-opacity="0.63"/>
<rect x="274.569" y="464.067" width="10.8112" height="42" rx="3" transform="rotate(-21.1794 274.569 464.067)" fill="white" fill-opacity="0.63"/>
<path d="M231.691 254.815C229.45 255.371 227.446 253.293 228.085 251.074L239.576 211.124C240.215 208.905 243.016 208.209 244.619 209.872L273.47 239.798C275.073 241.461 274.275 244.235 272.034 244.792L231.691 254.815Z" fill="white" fill-opacity="0.55"/>
<path d="M244.865 242.988C242.623 243.545 240.62 241.467 241.258 239.247L252.75 199.298C253.388 197.079 256.19 196.383 257.792 198.045L286.644 227.972C288.247 229.634 287.449 232.409 285.207 232.965L244.865 242.988Z" fill="white" fill-opacity="0.55"/>
<path d="M213.036 445.43C215.07 446.525 215.155 449.41 213.19 450.624L177.82 472.463C175.855 473.676 173.313 472.307 173.245 469.999L172.017 428.448C171.948 426.14 174.405 424.623 176.438 425.718L213.036 445.43Z" fill="white" fill-opacity="0.55"/>
<path d="M195.333 445.324C197.367 446.419 197.452 449.304 195.487 450.518L160.117 472.357C158.152 473.57 155.61 472.201 155.542 469.893L154.314 428.342C154.245 426.034 156.702 424.517 158.735 425.612L195.333 445.324Z" fill="white" fill-opacity="0.55"/>
<path d="M239.433 392.47C237.204 391.868 236.463 389.078 238.099 387.448L267.555 358.116C269.191 356.487 271.978 357.24 272.571 359.472L283.245 399.647C283.838 401.879 281.793 403.916 279.563 403.314L239.433 392.47Z" fill="white" fill-opacity="0.55"/>
<rect x="296.213" y="354.615" width="11" height="51.1153" rx="3" transform="rotate(105.327 296.213 354.615)" fill="white" fill-opacity="0.63"/>
<path d="M84.9135 552.799C83.8181 554.832 80.9326 554.917 79.7196 552.952L57.8862 517.578C56.6732 515.613 58.0425 513.072 60.3509 513.004L101.902 511.782C104.211 511.715 105.727 514.171 104.631 516.204L84.9135 552.799Z" fill="white" fill-opacity="0.55"/>
<rect x="61.0201" y="488.877" width="11" height="51.1153" rx="3" transform="rotate(28.5232 61.0201 488.877)" fill="white" fill-opacity="0.63"/>
<path d="M75.3689 31.0796C77.22 29.6988 79.8717 30.8397 80.142 33.1332L85.0066 74.4168C85.2768 76.7104 82.9629 78.4364 80.8415 77.5237L42.6566 61.0947C40.5352 60.182 40.1974 57.3151 42.0485 55.9343L75.3689 31.0796Z" fill="white" fill-opacity="0.55"/>
<path d="M67.7988 47.0828C69.6499 45.702 72.3017 46.8429 72.5719 49.1364L77.4365 90.42C77.7068 92.7136 75.3928 94.4396 73.2715 93.5268L35.0865 77.0979C32.9651 76.1852 32.6273 73.3183 34.4784 71.9374L67.7988 47.0828Z" fill="white" fill-opacity="0.55"/>
<path d="M291.098 107.513C291.395 105.223 294.06 104.113 295.895 105.515L328.922 130.758C330.757 132.161 330.386 135.023 328.254 135.911L289.879 151.892C287.748 152.78 285.454 151.027 285.751 148.737L291.098 107.513Z" fill="white" fill-opacity="0.55"/>
<rect x="336.246" y="158.686" width="11" height="51.1153" rx="3" transform="rotate(-172.402 336.246 158.686)" fill="white" fill-opacity="0.63"/>
</g>
<path d="M1006.59 673.377C1005.3 675.291 1002.42 675.089 1001.4 673.014L983.186 635.649C982.174 633.573 983.789 631.18 986.092 631.342L1027.56 634.247C1029.86 634.408 1031.13 637.003 1029.84 638.917L1006.59 673.377Z" fill="white" fill-opacity="0.55"/>
<path d="M600.1 354.638C601.044 356.745 599.352 359.084 597.055 358.848L555.704 354.594C553.407 354.358 552.227 351.724 553.58 349.852L577.939 316.168C579.293 314.297 582.164 314.592 583.108 316.7L600.1 354.638Z" fill="white" fill-opacity="0.55"/>
<rect x="985.039" y="504.109" width="11" height="42" rx="3" transform="rotate(147.996 985.039 504.109)" fill="white" fill-opacity="0.58"/>
<rect x="967.231" y="515.239" width="11" height="42" rx="3" transform="rotate(147.996 967.231 515.239)" fill="white" fill-opacity="0.58"/>
<rect x="662.326" y="465.854" width="10.8112" height="42" rx="3" transform="rotate(104.28 662.326 465.854)" fill="white" fill-opacity="0.58"/>
<rect x="657.235" y="485.856" width="10.8112" height="42" rx="3" transform="rotate(104.28 657.235 485.856)" fill="white" fill-opacity="0.58"/>
<path d="M852.552 572.322C853.398 570.174 856.254 569.747 857.691 571.555L883.564 604.09C885.002 605.898 883.944 608.584 881.66 608.925L840.546 615.064C838.262 615.405 836.465 613.146 837.312 610.997L852.552 572.322Z" fill="white" fill-opacity="0.55"/>
<path d="M854.543 589.913C855.389 587.765 858.244 587.338 859.682 589.146L885.555 621.682C886.993 623.489 885.934 626.175 883.65 626.516L842.537 632.655C840.253 632.996 838.456 630.737 839.303 628.588L854.543 589.913Z" fill="white" fill-opacity="0.55"/>
<path d="M708.112 446.548C706.04 447.569 703.64 445.965 703.792 443.66L706.522 402.181C706.674 399.876 709.263 398.6 711.183 399.884L745.74 422.988C747.66 424.271 747.471 427.152 745.399 428.173L708.112 446.548Z" fill="white" fill-opacity="0.55"/>
<path d="M718.468 432.19C716.396 433.211 713.997 431.606 714.148 429.302L716.878 387.822C717.03 385.518 719.619 384.242 721.539 385.525L756.096 408.629C758.016 409.913 757.827 412.793 755.755 413.814L718.468 432.19Z" fill="white" fill-opacity="0.55"/>
<path d="M735.936 498.772C737.72 497.306 740.422 498.32 740.8 500.598L747.604 541.607C747.982 543.885 745.752 545.718 743.59 544.907L704.674 530.295C702.512 529.483 702.039 526.635 703.823 525.169L735.936 498.772Z" fill="white" fill-opacity="0.55"/>
<rect x="733.83" y="566.981" width="11" height="51.1153" rx="3" transform="rotate(-129.214 733.83 566.981)" fill="white" fill-opacity="0.58"/>
<path d="M694.983 279.901C693.962 277.829 695.567 275.43 697.871 275.582L739.35 278.319C741.655 278.471 742.93 281.06 741.646 282.98L718.537 317.533C717.253 319.453 714.372 319.263 713.352 317.191L694.983 279.901Z" fill="white" fill-opacity="0.55"/>
<rect x="760.91" y="297.521" width="11" height="51.1153" rx="3" transform="rotate(153.982 760.91 297.521)" fill="white" fill-opacity="0.58"/>
<path d="M1125.48 574.786C1125.53 577.095 1123.06 578.593 1121.03 577.483L1084.59 557.496C1082.56 556.385 1082.5 553.499 1084.47 552.301L1120.01 530.729C1121.98 529.53 1124.51 530.918 1124.56 533.227L1125.48 574.786Z" fill="white" fill-opacity="0.55"/>
<path d="M1116.83 559.336C1116.88 561.645 1114.42 563.143 1112.39 562.033L1075.94 542.046C1073.92 540.935 1073.85 538.049 1075.83 536.851L1111.36 515.279C1113.34 514.08 1115.87 515.468 1115.92 517.777L1116.83 559.336Z" fill="white" fill-opacity="0.55"/>
<path d="M938.07 706.164C939.763 707.735 939.121 710.549 936.915 711.23L897.194 723.488C894.987 724.169 892.871 722.206 893.384 719.954L902.629 679.426C903.143 677.175 905.901 676.323 907.594 677.894L938.07 706.164Z" fill="white" fill-opacity="0.55"/>
<rect x="870.197" y="713.252" width="11" height="51.1153" rx="3" transform="rotate(-46.9433 870.197 713.252)" fill="white" fill-opacity="0.58"/>
<defs>
<filter id="filter0_d_70_220" x="29.2717" y="30.4807" width="317.362" height="604.915" filterUnits="userSpaceOnUse" color-interpolation-filters="sRGB">
<feFlood flood-opacity="0" result="BackgroundImageFix"/>
<feColorMatrix in="SourceAlpha" type="matrix" values="0 0 0 0 0 0 0 0 0 0 0 0 0 0 0 0 0 0 127 0" result="hardAlpha"/>
<feOffset dy="4"/>
<feGaussianBlur stdDeviation="2"/>
<feComposite in2="hardAlpha" operator="out"/>
<feColorMatrix type="matrix" values="0 0 0 0 0 0 0 0 0 0 0 0 0 0 0 0 0 0 0.25 0"/>
<feBlend mode="normal" in2="BackgroundImageFix" result="effect1_dropShadow_70_220"/>
<feBlend mode="normal" in="SourceGraphic" in2="effect1_dropShadow_70_220" result="shape"/>
</filter>
</defs>
</svg>
