<svg width="1594" height="1055" viewBox="0 0 1594 1055" fill="none" xmlns="http://www.w3.org/2000/svg">
<g id="rotating-bg" clip-path="url(#clip0_33_361)">
<rect width="1594" height="1055" fill="url(#paint0_linear_33_361)" style="mix-blend-mode:darken"/>
<path d="M417.516 138.28C417.406 135.974 419.834 134.413 421.887 135.471L458.837 154.514C460.89 155.572 461.028 158.456 459.085 159.705L424.117 182.183C422.175 183.431 419.609 182.109 419.499 179.802L417.516 138.28Z" fill="white" fill-opacity="0.54"/>
<path d="M933.923 150.537C931.906 149.412 931.862 146.526 933.844 145.341L969.525 124.013C971.507 122.828 974.029 124.234 974.064 126.543L974.694 168.107C974.729 170.416 972.251 171.897 970.234 170.773L933.923 150.537Z" fill="white" fill-opacity="0.54"/>
<rect x="536.04" y="261.031" width="11" height="42" rx="3" transform="rotate(-68.7453 536.04 261.031)" fill="white" fill-opacity="0.53"/>
<rect x="543.653" y="241.46" width="11" height="42" rx="3" transform="rotate(-68.7453 543.653 241.46)" fill="white" fill-opacity="0.53"/>
<rect x="817.528" y="98.6378" width="10.8112" height="42" rx="3" transform="rotate(-112.462 817.528 98.6378)" fill="white" fill-opacity="0.53"/>
<rect x="809.642" y="79.564" width="10.8112" height="42" rx="3" transform="rotate(-112.462 809.642 79.564)" fill="white" fill-opacity="0.53"/>
<path d="M601.402 127.114C602.009 129.343 599.976 131.392 597.743 130.804L557.547 120.209C555.314 119.621 554.555 116.835 556.181 115.196L585.455 85.6818C587.081 84.0421 589.872 84.7778 590.479 87.0061L601.402 127.114Z" fill="white" fill-opacity="0.54"/>
<path d="M589.284 114.209C589.891 116.437 587.858 118.487 585.625 117.898L545.428 107.304C543.195 106.715 542.437 103.93 544.063 102.29L573.336 72.7763C574.962 71.1366 577.754 71.8723 578.361 74.1006L589.284 114.209Z" fill="white" fill-opacity="0.54"/>
<path d="M792.387 141.498C793.437 139.441 796.319 139.291 797.576 141.228L820.202 176.101C821.459 178.038 820.147 180.609 817.841 180.729L776.328 182.888C774.022 183.007 772.45 180.586 773.5 178.529L792.387 141.498Z" fill="white" fill-opacity="0.54"/>
<path d="M792.678 159.199C793.727 157.142 796.61 156.992 797.867 158.929L820.492 193.801C821.749 195.739 820.438 198.31 818.131 198.43L776.618 200.588C774.312 200.708 772.741 198.287 773.79 196.229L792.678 159.199Z" fill="white" fill-opacity="0.54"/>
<path d="M738.85 116.293C738.298 118.535 735.525 119.339 733.859 117.739L703.875 88.9478C702.21 87.3482 702.9 84.5452 705.118 83.9024L745.044 72.3314C747.263 71.6886 749.345 73.688 748.792 75.9304L738.85 116.293Z" fill="white" fill-opacity="0.54"/>
<rect x="699.734" y="60.3744" width="11" height="51.1153" rx="3" transform="rotate(14.0449 699.734 60.3744)" fill="white" fill-opacity="0.53"/>
<path d="M902.598 267.185C904.655 268.235 904.804 271.118 902.866 272.375L867.99 294.994C866.053 296.251 863.481 294.939 863.362 292.633L861.211 251.119C861.091 248.813 863.513 247.242 865.57 248.292L902.598 267.185Z" fill="white" fill-opacity="0.54"/>
<rect x="839.226" y="292.504" width="11" height="51.1153" rx="3" transform="rotate(-62.7593 839.226 292.504)" fill="white" fill-opacity="0.53"/>
<path d="M381.222 288.405C379.8 286.585 380.882 283.909 383.169 283.587L424.333 277.8C426.62 277.478 428.397 279.753 427.532 281.894L411.962 320.437C411.097 322.579 408.238 322.981 406.817 321.161L381.222 288.405Z" fill="white" fill-opacity="0.54"/>
<path d="M397.391 295.615C395.969 293.795 397.05 291.119 399.337 290.797L440.502 285.01C442.788 284.688 444.566 286.963 443.701 289.104L428.131 327.647C427.266 329.789 424.407 330.191 422.985 328.371L397.391 295.615Z" fill="white" fill-opacity="0.54"/>
<path d="M452.808 71.0191C450.512 70.7733 449.343 68.1339 450.704 66.2681L475.201 32.6841C476.562 30.8184 479.432 31.1255 480.367 33.2371L497.203 71.2443C498.139 73.3558 496.438 75.688 494.141 75.4423L452.808 71.0191Z" fill="white" fill-opacity="0.54"/>
<rect x="502.957" y="24.7374" width="11" height="51.1153" rx="3" transform="rotate(96.3152 502.957 24.7374)" fill="white" fill-opacity="0.53"/>
<path d="M99.3205 883.032C97.8429 881.257 98.8407 878.549 101.116 878.156L142.082 871.096C144.358 870.703 146.205 872.922 145.406 875.089L131.038 914.096C130.24 916.263 127.395 916.754 125.918 914.979L99.3205 883.032Z" fill="white" fill-opacity="0.53"/>
<path d="M518.88 581.707C516.592 582.025 514.818 579.748 515.687 577.608L531.317 539.089C532.185 536.949 535.044 536.551 536.464 538.373L562.007 571.169C563.426 572.991 562.34 575.666 560.053 575.984L518.88 581.707Z" fill="white" fill-opacity="0.53"/>
<rect x="267.872" y="909.602" width="11" height="42" rx="3" transform="rotate(-105.791 267.872 909.602)" fill="white" fill-opacity="0.49"/>
<rect x="262.158" y="889.395" width="11" height="42" rx="3" transform="rotate(-105.791 262.158 889.395)" fill="white" fill-opacity="0.49"/>
<rect x="394.712" y="610.405" width="10.8112" height="42" rx="3" transform="rotate(-149.507 394.712 610.405)" fill="white" fill-opacity="0.49"/>
<rect x="376.927" y="599.932" width="10.8112" height="42" rx="3" transform="rotate(-149.507 376.927 599.932)" fill="white" fill-opacity="0.49"/>
<path d="M239.365 763.338C241.191 764.751 240.804 767.612 238.667 768.487L200.201 784.248C198.064 785.123 195.78 783.357 196.091 781.068L201.675 739.876C201.985 737.588 204.656 736.493 206.483 737.906L239.365 763.338Z" fill="white" fill-opacity="0.53"/>
<path d="M221.917 760.338C223.744 761.751 223.356 764.612 221.219 765.487L182.753 781.248C180.616 782.123 178.333 780.357 178.643 778.068L184.227 736.876C184.538 734.588 187.209 733.493 189.036 734.906L221.917 760.338Z" fill="white" fill-opacity="0.53"/>
<path d="M400.466 659.76C400.064 657.486 402.275 655.63 404.445 656.419L443.513 670.622C445.683 671.411 446.186 674.254 444.417 675.739L412.583 702.471C410.815 703.956 408.102 702.97 407.7 700.695L400.466 659.76Z" fill="white" fill-opacity="0.53"/>
<path d="M411.362 673.714C410.96 671.44 413.171 669.583 415.341 670.372L454.409 684.575C456.579 685.364 457.081 688.207 455.313 689.692L423.479 716.424C421.71 717.909 418.997 716.923 418.595 714.649L411.362 673.714Z" fill="white" fill-opacity="0.53"/>
<path d="M342.55 671.896C343.46 674.019 341.732 676.331 339.438 676.057L298.161 671.141C295.868 670.868 294.73 668.214 296.113 666.365L321.01 633.076C322.393 631.227 325.26 631.568 326.17 633.691L342.55 671.896Z" fill="white" fill-opacity="0.53"/>
<rect x="277.642" y="650.829" width="11" height="51.1153" rx="3" transform="rotate(-23.0004 277.642 650.829)" fill="white" fill-opacity="0.49"/>
<path d="M564.152 693.683C566.426 693.282 568.282 695.493 567.492 697.663L553.283 736.728C552.493 738.899 549.651 739.401 548.166 737.632L521.439 705.793C519.954 704.024 520.941 701.312 523.215 700.91L564.152 693.683Z" fill="white" fill-opacity="0.53"/>
<rect x="528.824" y="752.069" width="11" height="51.1153" rx="3" transform="rotate(-99.8046 528.824 752.069)" fill="white" fill-opacity="0.49"/>
<path d="M160.795 1024.72C158.563 1024.12 157.814 1021.34 159.446 1019.7L188.815 990.284C190.446 988.65 193.235 989.394 193.835 991.625L204.628 1031.77C205.227 1034 203.188 1036.04 200.957 1035.45L160.795 1024.72Z" fill="white" fill-opacity="0.53"/>
<path d="M178.043 1020.73C175.812 1020.14 175.063 1017.35 176.694 1015.72L206.064 986.298C207.695 984.664 210.484 985.409 211.084 987.639L221.876 1027.78C222.476 1030.01 220.437 1032.06 218.205 1031.46L178.043 1020.73Z" fill="white" fill-opacity="0.53"/>
<path d="M86.9681 808.085C84.9872 809.273 82.4639 807.87 82.4262 805.561L81.7463 763.997C81.7086 761.688 84.1846 760.204 86.2032 761.326L122.538 781.519C124.557 782.641 124.604 785.527 122.623 786.715L86.9681 808.085Z" fill="white" fill-opacity="0.53"/>
<rect x="99.1132" y="740.933" width="11" height="51.1153" rx="3" transform="rotate(59.2699 99.1132 740.933)" fill="white" fill-opacity="0.49"/>
<path d="M907.426 939.816C907.472 942.125 905.001 943.617 902.978 942.502L866.574 922.434C864.552 921.319 864.495 918.433 866.472 917.239L902.053 895.746C904.03 894.552 906.558 895.946 906.604 898.255L907.426 939.816Z" fill="black" fill-opacity="0.55"/>
<path d="M391.563 913.139C393.548 914.319 393.511 917.205 391.496 918.334L355.233 938.657C353.219 939.786 350.738 938.311 350.767 936.002L351.298 894.436C351.328 892.127 353.846 890.715 355.831 891.895L391.563 913.139Z" fill="black" fill-opacity="0.55"/>
<rect x="792.377" y="813.802" width="11" height="42" rx="3" transform="rotate(112.855 792.377 813.802)" fill="black" fill-opacity="0.58"/>
<rect x="784.221" y="833.153" width="11" height="42" rx="3" transform="rotate(112.855 784.221 833.153)" fill="black" fill-opacity="0.58"/>
<rect x="506.462" y="968.269" width="10.8112" height="42" rx="3" transform="rotate(69.1388 506.462 968.269)" fill="black" fill-opacity="0.58"/>
<rect x="513.812" y="987.555" width="10.8112" height="42" rx="3" transform="rotate(69.1388 513.812 987.555)" fill="black" fill-opacity="0.58"/>
<path d="M723.299 945.841C722.755 943.596 724.844 941.604 727.06 942.255L766.945 953.968C769.161 954.619 769.841 957.424 768.17 959.018L738.083 987.703C736.412 989.296 733.642 988.483 733.098 986.238L723.299 945.841Z" fill="black" fill-opacity="0.55"/>
<path d="M735.052 959.08C734.508 956.835 736.597 954.843 738.813 955.494L778.698 967.207C780.914 967.858 781.594 970.663 779.923 972.257L749.836 1000.94C748.165 1002.54 745.395 1001.72 744.851 999.477L735.052 959.08Z" fill="black" fill-opacity="0.55"/>
<path d="M532.791 926.127C531.684 928.155 528.798 928.224 527.596 926.252L505.953 890.761C504.751 888.79 506.134 886.256 508.443 886.2L550 885.203C552.309 885.147 553.812 887.612 552.705 889.639L532.791 926.127Z" fill="black" fill-opacity="0.55"/>
<path d="M532.995 908.425C531.889 910.452 529.003 910.522 527.8 908.55L506.158 873.059C504.955 871.088 506.338 868.554 508.647 868.498L550.204 867.5C552.513 867.445 554.016 869.91 552.91 871.937L532.995 908.425Z" fill="black" fill-opacity="0.55"/>
<path d="M585.603 952.818C586.218 950.592 589.012 949.866 590.632 951.512L619.8 981.13C621.42 982.775 620.652 985.558 618.417 986.138L578.183 996.589C575.948 997.17 573.922 995.113 574.537 992.887L585.603 952.818Z" fill="black" fill-opacity="0.55"/>
<rect x="623.141" y="1009.81" width="11" height="51.1153" rx="3" transform="rotate(-164.354 623.141 1009.81)" fill="black" fill-opacity="0.58"/>
<path d="M426.134 797.41C424.108 796.304 424.039 793.418 426.011 792.216L461.505 770.579C463.477 769.377 466.011 770.76 466.066 773.069L467.056 814.626C467.111 816.935 464.647 818.438 462.62 817.331L426.134 797.41Z" fill="black" fill-opacity="0.55"/>
<rect x="490.189" y="773.872" width="11" height="51.1153" rx="3" transform="rotate(118.841 490.189 773.872)" fill="black" fill-opacity="0.58"/>
<path d="M947.899 790.763C949.269 792.622 948.114 795.268 945.819 795.525L904.509 800.16C902.214 800.418 900.501 798.094 901.425 795.978L918.066 757.885C918.991 755.769 921.859 755.447 923.23 757.306L947.899 790.763Z" fill="black" fill-opacity="0.55"/>
<path d="M931.938 783.105C933.309 784.963 932.153 787.609 929.858 787.866L888.548 792.501C886.253 792.759 884.54 790.435 885.464 788.319L902.105 750.226C903.03 748.11 905.898 747.788 907.269 749.647L931.938 783.105Z" fill="black" fill-opacity="0.55"/>
<path d="M870.269 1006.06C872.557 1006.37 873.652 1009.05 872.24 1010.87L846.814 1043.76C845.401 1045.59 842.54 1045.2 841.664 1043.06L825.897 1004.6C825.021 1002.46 826.786 1000.18 829.075 1000.49L870.269 1006.06Z" fill="black" fill-opacity="0.55"/>
<rect x="818.846" y="1050.93" width="11" height="51.1153" rx="3" transform="rotate(-82.0841 818.846 1050.93)" fill="black" fill-opacity="0.58"/>
<path d="M1433.31 66.3458C1435.62 66.3143 1437.1 68.7944 1435.97 70.8099L1415.68 107.09C1414.55 109.106 1411.67 109.145 1410.49 107.161L1389.21 71.4478C1388.03 69.4637 1389.44 66.9443 1391.75 66.9128L1433.31 66.3458Z" fill="black" fill-opacity="0.55"/>
<path d="M1403.47 582.036C1404.66 580.058 1407.55 580.112 1408.67 582.134L1428.76 618.521C1429.88 620.542 1428.39 623.015 1426.08 622.971L1384.52 622.184C1382.21 622.141 1380.82 619.614 1382.01 617.636L1403.47 582.036Z" fill="black" fill-opacity="0.55"/>
<rect x="1306.6" y="180.619" width="11" height="42" rx="3" transform="rotate(23.2071 1306.6 180.619)" fill="black" fill-opacity="0.58"/>
<rect x="1325.9" y="188.894" width="11" height="42" rx="3" transform="rotate(23.2071 1325.9 188.894)" fill="black" fill-opacity="0.58"/>
<rect x="1459.3" y="467.476" width="10.8112" height="42" rx="3" transform="rotate(-20.5095 1459.3 467.476)" fill="black" fill-opacity="0.58"/>
<rect x="1478.64" y="460.245" width="10.8112" height="42" rx="3" transform="rotate(-20.5095 1478.64 460.245)" fill="black" fill-opacity="0.58"/>
<path d="M1438.21 250.506C1435.96 251.037 1433.98 248.935 1434.65 246.723L1446.6 206.911C1447.27 204.699 1450.08 204.036 1451.66 205.717L1480.16 235.979C1481.74 237.66 1480.91 240.425 1478.66 240.956L1438.21 250.506Z" fill="black" fill-opacity="0.55"/>
<path d="M1451.52 238.834C1449.27 239.365 1447.29 237.264 1447.96 235.052L1459.91 195.24C1460.58 193.028 1463.39 192.365 1464.97 194.046L1493.47 224.308C1495.05 225.989 1494.22 228.754 1491.98 229.284L1451.52 238.834Z" fill="black" fill-opacity="0.55"/>
<path d="M1417.33 440.89C1419.35 442.009 1419.4 444.895 1417.42 446.085L1381.8 467.51C1379.82 468.7 1377.29 467.302 1377.25 464.992L1376.51 423.43C1376.47 421.121 1378.94 419.633 1380.96 420.752L1417.33 440.89Z" fill="black" fill-opacity="0.55"/>
<path d="M1399.62 440.577C1401.65 441.696 1401.7 444.582 1399.72 445.772L1364.09 467.197C1362.12 468.387 1359.59 466.989 1359.55 464.68L1358.81 423.117C1358.77 420.808 1361.24 419.32 1363.26 420.439L1399.62 440.577Z" fill="black" fill-opacity="0.55"/>
<path d="M1444.34 388.243C1442.12 387.614 1441.41 384.816 1443.06 383.206L1472.86 354.22C1474.52 352.61 1477.29 353.395 1477.86 355.634L1488.06 395.931C1488.63 398.17 1486.56 400.183 1484.34 399.554L1444.34 388.243Z" fill="black" fill-opacity="0.55"/>
<rect x="1501.56" y="351.055" width="11" height="51.1153" rx="3" transform="rotate(105.997 1501.56 351.055)" fill="black" fill-opacity="0.58"/>
<path d="M1287.96 546.754C1286.84 548.774 1283.95 548.825 1282.76 546.846L1261.34 511.22C1260.15 509.24 1261.55 506.715 1263.86 506.674L1305.42 505.939C1307.73 505.898 1309.22 508.372 1308.1 510.392L1287.96 546.754Z" fill="black" fill-opacity="0.55"/>
<rect x="1264.81" y="482.557" width="11" height="51.1153" rx="3" transform="rotate(29.1931 1264.81 482.557)" fill="black" fill-opacity="0.58"/>
<path d="M1284.51 24.9587C1286.38 23.5996 1289.02 24.7714 1289.26 27.068L1293.64 68.4056C1293.89 70.7022 1291.55 72.401 1289.44 71.4635L1251.45 54.5892C1249.34 53.6518 1249.04 50.7811 1250.9 49.422L1284.51 24.9587Z" fill="black" fill-opacity="0.55"/>
<path d="M1276.76 40.8722C1278.62 39.5132 1281.26 40.685 1281.5 42.9815L1285.89 84.3192C1286.13 86.6157 1283.8 88.3146 1281.68 87.3771L1243.69 70.5028C1241.58 69.5654 1241.28 66.6947 1243.15 65.3356L1276.76 40.8722Z" fill="black" fill-opacity="0.55"/>
<path d="M1499.33 103.909C1499.66 101.623 1502.33 100.544 1504.15 101.968L1536.88 127.595C1538.7 129.019 1538.3 131.877 1536.15 132.74L1497.6 148.271C1495.45 149.134 1493.18 147.354 1493.5 145.068L1499.33 103.909Z" fill="black" fill-opacity="0.55"/>
<rect x="1543.88" y="155.606" width="11" height="51.1153" rx="3" transform="rotate(-171.732 1543.88 155.606)" fill="black" fill-opacity="0.58"/>
<path d="M1565.55 736.866C1566.55 738.946 1564.93 741.331 1562.62 741.159L1521.17 738.048C1518.87 737.876 1517.61 735.275 1518.92 733.367L1542.34 699.023C1543.64 697.115 1546.52 697.331 1547.52 699.411L1565.55 736.866Z" fill="black" fill-opacity="0.55"/>
<path d="M1085.32 927.153C1087.62 927.401 1088.79 930.041 1087.42 931.906L1062.9 965.469C1061.54 967.334 1058.67 967.024 1057.73 964.912L1040.93 926.89C1040 924.778 1041.7 922.447 1043.99 922.695L1085.32 927.153Z" fill="black" fill-opacity="0.55"/>
<rect x="1408.51" y="670.116" width="11" height="42" rx="3" transform="rotate(88.2794 1408.51 670.116)" fill="black" fill-opacity="0.58"/>
<rect x="1409.14" y="691.107" width="11" height="42" rx="3" transform="rotate(88.2794 1409.14 691.107)" fill="black" fill-opacity="0.58"/>
<rect x="1212.74" y="929.502" width="10.8112" height="42" rx="3" transform="rotate(44.5628 1212.74 929.502)" fill="black" fill-opacity="0.58"/>
<rect x="1227.45" y="943.985" width="10.8112" height="42" rx="3" transform="rotate(44.5628 1227.45 943.985)" fill="black" fill-opacity="0.58"/>
<path d="M1400.61 818.923C1399.18 817.108 1400.25 814.428 1402.54 814.098L1443.68 808.162C1445.97 807.832 1447.75 810.101 1446.9 812.245L1431.46 850.844C1430.61 852.988 1427.75 853.401 1426.32 851.586L1400.61 818.923Z" fill="black" fill-opacity="0.55"/>
<path d="M1416.8 826.075C1415.38 824.26 1416.45 821.579 1418.73 821.25L1459.88 815.314C1462.16 814.984 1463.95 817.252 1463.09 819.396L1447.66 857.996C1446.8 860.14 1443.94 860.552 1442.52 858.738L1416.8 826.075Z" fill="black" fill-opacity="0.55"/>
<path d="M1219.16 880.228C1219 882.532 1216.4 883.795 1214.49 882.502L1180.05 859.228C1178.13 857.935 1178.34 855.055 1180.41 854.045L1217.79 835.854C1219.87 834.843 1222.26 836.459 1222.09 838.763L1219.16 880.228Z" fill="black" fill-opacity="0.55"/>
<path d="M1211.98 864.045C1211.82 866.349 1209.22 867.612 1207.31 866.319L1172.87 843.044C1170.96 841.751 1171.16 838.872 1173.24 837.861L1210.61 819.67C1212.69 818.66 1215.08 820.276 1214.92 822.579L1211.98 864.045Z" fill="black" fill-opacity="0.55"/>
<path d="M1278.29 882.536C1277.92 880.256 1280.16 878.434 1282.32 879.257L1321.16 894.061C1323.32 894.883 1323.78 897.733 1321.99 899.191L1289.75 925.429C1287.95 926.886 1285.26 925.858 1284.89 923.578L1278.29 882.536Z" fill="black" fill-opacity="0.55"/>
<rect x="1336.13" y="918.751" width="11" height="51.1153" rx="3" transform="rotate(171.07 1336.13 918.751)" fill="black" fill-opacity="0.58"/>
<path d="M1068.63 807.53C1066.33 807.367 1065.07 804.771 1066.36 802.857L1089.64 768.419C1090.93 766.505 1093.81 766.71 1094.82 768.786L1113.01 806.167C1114.02 808.244 1112.4 810.635 1110.1 810.472L1068.63 807.53Z" fill="black" fill-opacity="0.55"/>
<rect x="1117.09" y="759.484" width="11" height="51.1152" rx="3" transform="rotate(94.2654 1117.09 759.484)" fill="black" fill-opacity="0.58"/>
<path d="M1540.37 584.483C1542.39 585.604 1542.43 588.49 1540.45 589.679L1504.81 611.075C1502.83 612.263 1500.31 610.863 1500.27 608.554L1499.56 566.991C1499.52 564.682 1502 563.196 1504.02 564.316L1540.37 584.483Z" fill="black" fill-opacity="0.55"/>
<path d="M1522.67 584.156C1524.68 585.277 1524.73 588.163 1522.75 589.352L1487.11 610.748C1485.13 611.936 1482.61 610.536 1482.57 608.227L1481.86 566.664C1481.82 564.355 1484.3 562.869 1486.32 563.989L1522.67 584.156Z" fill="black" fill-opacity="0.55"/>
<path d="M1559.31 812.567C1561.52 811.897 1563.63 813.871 1563.1 816.12L1553.66 856.602C1553.13 858.851 1550.37 859.688 1548.69 858.109L1518.35 829.689C1516.66 828.11 1517.32 825.299 1519.53 824.629L1559.31 812.567Z" fill="black" fill-opacity="0.55"/>
<rect x="1531.21" y="874.752" width="11" height="51.1153" rx="3" transform="rotate(-106.66 1531.21 874.752)" fill="black" fill-opacity="0.58"/>
<path d="M1133.64 80.7241C1135.95 80.6656 1137.46 83.1282 1136.36 85.1568L1116.49 121.672C1115.39 123.7 1112.5 123.773 1111.29 121.803L1089.6 86.3414C1088.4 84.3713 1089.78 81.8355 1092.09 81.777L1133.64 80.7241Z" fill="black" fill-opacity="0.55"/>
<path d="M1109.83 596.728C1111 594.736 1113.89 594.757 1115.03 596.765L1135.55 632.915C1136.69 634.923 1135.23 637.412 1132.92 637.396L1091.35 637.095C1089.04 637.078 1087.62 634.568 1088.79 632.576L1109.83 596.728Z" fill="black" fill-opacity="0.55"/>
<rect x="1008.27" y="196.471" width="11" height="42" rx="3" transform="rotate(22.5372 1008.27 196.471)" fill="black" fill-opacity="0.58"/>
<rect x="1027.67" y="204.52" width="11" height="42" rx="3" transform="rotate(22.5372 1027.67 204.52)" fill="black" fill-opacity="0.58"/>
<rect x="1164.32" y="481.523" width="10.8112" height="42" rx="3" transform="rotate(-21.1794 1164.32 481.523)" fill="black" fill-opacity="0.58"/>
<rect x="1183.57" y="474.067" width="10.8112" height="42" rx="3" transform="rotate(-21.1794 1183.57 474.067)" fill="black" fill-opacity="0.58"/>
<path d="M1140.69 264.815C1138.45 265.371 1136.45 263.293 1137.08 261.074L1148.58 221.124C1149.21 218.905 1152.02 218.209 1153.62 219.872L1182.47 249.798C1184.07 251.461 1183.28 254.235 1181.03 254.792L1140.69 264.815Z" fill="black" fill-opacity="0.55"/>
<path d="M1153.86 252.988C1151.62 253.545 1149.62 251.467 1150.26 249.247L1161.75 209.298C1162.39 207.079 1165.19 206.383 1166.79 208.045L1195.64 237.972C1197.25 239.634 1196.45 242.409 1194.21 242.965L1153.86 252.988Z" fill="black" fill-opacity="0.55"/>
<path d="M1122.04 455.43C1124.07 456.525 1124.15 459.41 1122.19 460.624L1086.82 482.463C1084.85 483.676 1082.31 482.307 1082.25 479.999L1081.02 438.448C1080.95 436.14 1083.4 434.623 1085.44 435.718L1122.04 455.43Z" fill="black" fill-opacity="0.55"/>
<path d="M1104.33 455.324C1106.37 456.419 1106.45 459.304 1104.49 460.518L1069.12 482.357C1067.15 483.57 1064.61 482.202 1064.54 479.893L1063.31 438.342C1063.25 436.034 1065.7 434.517 1067.73 435.612L1104.33 455.324Z" fill="black" fill-opacity="0.55"/>
<path d="M1148.43 402.47C1146.2 401.868 1145.46 399.078 1147.1 397.448L1176.55 368.116C1178.19 366.487 1180.98 367.24 1181.57 369.472L1192.25 409.647C1192.84 411.879 1190.79 413.916 1188.56 413.313L1148.43 402.47Z" fill="black" fill-opacity="0.55"/>
<rect x="1205.21" y="364.616" width="11" height="51.1153" rx="3" transform="rotate(105.327 1205.21 364.616)" fill="black" fill-opacity="0.58"/>
<path d="M993.914 562.799C992.818 564.832 989.933 564.917 988.72 562.952L966.886 527.578C965.673 525.613 967.043 523.072 969.351 523.004L1010.9 521.782C1013.21 521.714 1014.73 524.171 1013.63 526.204L993.914 562.799Z" fill="black" fill-opacity="0.55"/>
<rect x="970.02" y="498.877" width="11" height="51.1153" rx="3" transform="rotate(28.5232 970.02 498.877)" fill="black" fill-opacity="0.58"/>
<path d="M984.369 41.0796C986.22 39.6987 988.872 40.8396 989.142 43.1332L994.007 84.4168C994.277 86.7103 991.963 88.4363 989.842 87.5236L951.657 71.0947C949.535 70.1819 949.197 67.315 951.049 65.9342L984.369 41.0796Z" fill="black" fill-opacity="0.55"/>
<path d="M976.799 57.0827C978.65 55.7019 981.302 56.8428 981.572 59.1364L986.437 100.42C986.707 102.713 984.393 104.44 982.271 103.527L944.087 87.0978C941.965 86.1851 941.627 83.3182 943.478 81.9374L976.799 57.0827Z" fill="black" fill-opacity="0.55"/>
<path d="M1200.1 117.513C1200.4 115.223 1203.06 114.113 1204.9 115.515L1237.92 140.758C1239.76 142.161 1239.39 145.023 1237.25 145.911L1198.88 161.892C1196.75 162.78 1194.45 161.027 1194.75 158.737L1200.1 117.513Z" fill="black" fill-opacity="0.55"/>
<rect x="1245.25" y="168.686" width="11" height="51.1153" rx="3" transform="rotate(-172.402 1245.25 168.686)" fill="black" fill-opacity="0.58"/>
<path d="M180.644 63.7241C182.952 63.6656 184.459 66.1282 183.355 68.1568L163.489 104.672C162.385 106.7 159.499 106.773 158.294 104.803L136.605 69.3414C135.4 67.3713 136.779 64.8355 139.088 64.777L180.644 63.7241Z" fill="white" fill-opacity="0.55"/>
<path d="M156.832 579.728C158.001 577.736 160.888 577.757 162.028 579.765L182.552 615.915C183.692 617.923 182.231 620.412 179.921 620.396L138.353 620.095C136.044 620.078 134.619 617.568 135.788 615.576L156.832 579.728Z" fill="white" fill-opacity="0.55"/>
<rect x="55.2709" y="179.471" width="11" height="42" rx="3" transform="rotate(22.5372 55.2709 179.471)" fill="white" fill-opacity="0.63"/>
<rect x="74.6671" y="187.52" width="11" height="42" rx="3" transform="rotate(22.5372 74.6671 187.52)" fill="white" fill-opacity="0.63"/>
<rect x="211.323" y="464.523" width="10.8112" height="42" rx="3" transform="rotate(-21.1794 211.323 464.523)" fill="white" fill-opacity="0.63"/>
<rect x="230.569" y="457.067" width="10.8112" height="42" rx="3" transform="rotate(-21.1794 230.569 457.067)" fill="white" fill-opacity="0.63"/>
<path d="M187.691 247.815C185.45 248.371 183.446 246.293 184.085 244.074L195.576 204.124C196.215 201.905 199.016 201.209 200.619 202.872L229.47 232.798C231.073 234.461 230.275 237.235 228.034 237.792L187.691 247.815Z" fill="white" fill-opacity="0.55"/>
<path d="M200.865 235.988C198.623 236.545 196.62 234.467 197.258 232.247L208.75 192.298C209.388 190.079 212.19 189.383 213.792 191.045L242.644 220.972C244.247 222.634 243.449 225.409 241.207 225.965L200.865 235.988Z" fill="white" fill-opacity="0.55"/>
<path d="M169.036 438.43C171.07 439.525 171.155 442.41 169.19 443.624L133.82 465.463C131.855 466.676 129.313 465.307 129.245 462.999L128.017 421.448C127.948 419.14 130.405 417.623 132.438 418.718L169.036 438.43Z" fill="white" fill-opacity="0.55"/>
<path d="M151.333 438.324C153.367 439.419 153.452 442.304 151.487 443.518L116.117 465.357C114.152 466.57 111.61 465.202 111.542 462.893L110.314 421.342C110.245 419.034 112.702 417.517 114.735 418.612L151.333 438.324Z" fill="white" fill-opacity="0.55"/>
<path d="M195.433 385.47C193.204 384.868 192.463 382.078 194.099 380.448L223.555 351.116C225.191 349.487 227.978 350.24 228.571 352.472L239.245 392.647C239.838 394.879 237.793 396.916 235.563 396.313L195.433 385.47Z" fill="white" fill-opacity="0.55"/>
<rect x="252.213" y="347.616" width="11" height="51.1153" rx="3" transform="rotate(105.327 252.213 347.616)" fill="white" fill-opacity="0.63"/>
<path d="M40.9135 545.799C39.8181 547.832 36.9326 547.917 35.7196 545.952L13.8862 510.578C12.6732 508.613 14.0425 506.072 16.3509 506.004L57.9022 504.782C60.2106 504.714 61.7268 507.171 60.6314 509.204L40.9135 545.799Z" fill="white" fill-opacity="0.55"/>
<rect x="17.0201" y="481.877" width="11" height="51.1153" rx="3" transform="rotate(28.5232 17.0201 481.877)" fill="white" fill-opacity="0.63"/>
<path d="M31.3689 24.0796C33.22 22.6987 35.8717 23.8396 36.142 26.1332L41.0066 67.4168C41.2768 69.7103 38.9629 71.4363 36.8415 70.5236L-1.34341 54.0947C-3.4648 53.1819 -3.80261 50.315 -1.95148 48.9342L31.3689 24.0796Z" fill="white" fill-opacity="0.55"/>
<path d="M23.7988 40.0827C25.6499 38.7019 28.3017 39.8428 28.5719 42.1364L33.4365 83.42C33.7068 85.7135 31.3928 87.4395 29.2715 86.5268L-8.91348 70.0978C-11.0349 69.1851 -11.3727 66.3182 -9.52155 64.9374L23.7988 40.0827Z" fill="white" fill-opacity="0.55"/>
<path d="M247.098 100.513C247.395 98.2229 250.06 97.1131 251.895 98.5155L284.922 123.758C286.757 125.161 286.386 128.023 284.254 128.911L245.879 144.892C243.748 145.78 241.454 144.027 241.751 141.737L247.098 100.513Z" fill="white" fill-opacity="0.55"/>
<rect x="292.246" y="151.686" width="11" height="51.1153" rx="3" transform="rotate(-172.402 292.246 151.686)" fill="white" fill-opacity="0.63"/>
<path d="M962.588 666.377C961.296 668.291 958.416 668.089 957.404 666.013L939.186 628.649C938.174 626.573 939.789 624.18 942.092 624.342L983.56 627.247C985.864 627.408 987.129 630.003 985.837 631.917L962.588 666.377Z" fill="black" fill-opacity="0.55"/>
<path d="M556.1 347.637C557.044 349.745 555.352 352.084 553.055 351.848L511.704 347.594C509.407 347.358 508.227 344.723 509.58 342.852L533.939 309.168C535.293 307.297 538.164 307.592 539.108 309.7L556.1 347.637Z" fill="black" fill-opacity="0.55"/>
<rect x="941.039" y="497.109" width="11" height="42" rx="3" transform="rotate(147.996 941.039 497.109)" fill="black" fill-opacity="0.58"/>
<rect x="923.231" y="508.239" width="11" height="42" rx="3" transform="rotate(147.996 923.231 508.239)" fill="black" fill-opacity="0.58"/>
<rect x="618.326" y="458.854" width="10.8112" height="42" rx="3" transform="rotate(104.28 618.326 458.854)" fill="black" fill-opacity="0.58"/>
<rect x="613.235" y="478.856" width="10.8112" height="42" rx="3" transform="rotate(104.28 613.235 478.856)" fill="black" fill-opacity="0.58"/>
<path d="M808.552 565.322C809.398 563.174 812.254 562.747 813.691 564.555L839.564 597.09C841.002 598.898 839.944 601.584 837.66 601.925L796.546 608.064C794.262 608.405 792.465 606.146 793.312 603.997L808.552 565.322Z" fill="black" fill-opacity="0.55"/>
<path d="M810.543 582.913C811.389 580.765 814.244 580.338 815.682 582.146L841.555 614.681C842.993 616.489 841.934 619.175 839.65 619.516L798.537 625.655C796.253 625.996 794.456 623.737 795.303 621.588L810.543 582.913Z" fill="black" fill-opacity="0.55"/>
<path d="M664.112 439.548C662.04 440.569 659.64 438.964 659.792 436.66L662.522 395.18C662.674 392.876 665.263 391.6 667.183 392.884L701.74 415.987C703.66 417.271 703.471 420.152 701.399 421.172L664.112 439.548Z" fill="black" fill-opacity="0.55"/>
<path d="M674.468 425.19C672.396 426.211 669.997 424.606 670.148 422.302L672.878 380.822C673.03 378.518 675.619 377.242 677.539 378.525L712.096 401.629C714.016 402.913 713.827 405.793 711.755 406.814L674.468 425.19Z" fill="black" fill-opacity="0.55"/>
<path d="M691.936 491.772C693.72 490.305 696.422 491.32 696.8 493.598L703.604 534.607C703.982 536.885 701.752 538.718 699.59 537.907L660.674 523.295C658.512 522.483 658.039 519.635 659.823 518.169L691.936 491.772Z" fill="black" fill-opacity="0.55"/>
<rect x="689.83" y="559.981" width="11" height="51.1153" rx="3" transform="rotate(-129.214 689.83 559.981)" fill="black" fill-opacity="0.58"/>
<path d="M650.983 272.901C649.962 270.829 651.567 268.43 653.871 268.582L695.35 271.319C697.655 271.471 698.93 274.06 697.646 275.98L674.537 310.533C673.253 312.453 670.372 312.263 669.352 310.191L650.983 272.901Z" fill="black" fill-opacity="0.55"/>
<rect x="716.91" y="290.521" width="11" height="51.1153" rx="3" transform="rotate(153.982 716.91 290.521)" fill="black" fill-opacity="0.58"/>
<path d="M1081.48 567.786C1081.53 570.095 1079.06 571.593 1077.03 570.483L1040.59 550.496C1038.56 549.385 1038.5 546.499 1040.47 545.301L1076.01 523.729C1077.98 522.53 1080.51 523.918 1080.56 526.227L1081.48 567.786Z" fill="black" fill-opacity="0.55"/>
<path d="M1072.83 552.336C1072.88 554.645 1070.42 556.143 1068.39 555.033L1031.94 535.046C1029.92 533.935 1029.85 531.049 1031.83 529.851L1067.36 508.279C1069.34 507.08 1071.87 508.468 1071.92 510.777L1072.83 552.336Z" fill="black" fill-opacity="0.55"/>
<path d="M894.07 699.164C895.763 700.734 895.121 703.549 892.915 704.23L853.194 716.488C850.987 717.169 848.871 715.206 849.384 712.954L858.629 672.426C859.143 670.174 861.901 669.323 863.594 670.894L894.07 699.164Z" fill="black" fill-opacity="0.55"/>
<rect x="826.197" y="706.252" width="11" height="51.1153" rx="3" transform="rotate(-46.9433 826.197 706.252)" fill="black" fill-opacity="0.58"/>
</g>
<defs>
<linearGradient id="paint0_linear_33_361" x1="797" y1="0" x2="797" y2="1055" gradientUnits="userSpaceOnUse">
<stop stop-color="#B04AFF"/>
<stop offset="0.505208" stop-color="#B04AFF" stop-opacity="0.85"/>
<stop offset="1" stop-color="#B04AFF" stop-opacity="0.53"/>
</linearGradient>
<clipPath id="clip0_33_361">
<rect width="1594" height="1055" fill="white"/>
</clipPath>
</defs>
</svg>
